<?xml version="1.0" encoding="utf-8" standalone="no"?>
<!DOCTYPE svg PUBLIC "-//W3C//DTD SVG 1.1//EN"
  "http://www.w3.org/Graphics/SVG/1.1/DTD/svg11.dtd">
<svg xmlns:xlink="http://www.w3.org/1999/xlink" width="460.8pt" height="345.6pt" viewBox="0 0 460.8 345.6" xmlns="http://www.w3.org/2000/svg" version="1.1">
 <metadata>
  <rdf:RDF xmlns:dc="http://purl.org/dc/elements/1.1/" xmlns:cc="http://creativecommons.org/ns#" xmlns:rdf="http://www.w3.org/1999/02/22-rdf-syntax-ns#">
   <cc:Work>
    <dc:type rdf:resource="http://purl.org/dc/dcmitype/StillImage"/>
    <dc:date>2023-07-04T18:17:02.468550</dc:date>
    <dc:format>image/svg+xml</dc:format>
    <dc:creator>
     <cc:Agent>
      <dc:title>Matplotlib v3.6.2, https://matplotlib.org/</dc:title>
     </cc:Agent>
    </dc:creator>
   </cc:Work>
  </rdf:RDF>
 </metadata>
 <defs>
  <style type="text/css">*{stroke-linejoin: round; stroke-linecap: butt}</style>
 </defs>
 <g id="figure_1">
  <g id="patch_1">
   <path d="M 0 345.6 
L 460.8 345.6 
L 460.8 0 
L 0 0 
z
" style="fill: #ffffff"/>
  </g>
  <g id="axes_1">
   <g id="patch_2">
    <path d="M 57.6 276.834773 
L 414.72 276.834773 
L 414.72 72.221227 
L 57.6 72.221227 
z
" style="fill: #ffffff"/>
   </g>
   <g id="patch_3">
    <path d="M 317.757171 221.560713 
C 324.711164 199.997539 318.530567 175.170359 300.576584 152.547069 
C 282.622601 129.92378 254.361096 111.351472 222.016337 100.920483 
C 189.671577 90.489493 155.88437 89.051465 128.095956 96.923108 
C 100.307541 104.79475 80.786721 121.333378 73.832727 142.896552 
C 66.878734 164.459725 73.059331 189.286906 91.013314 211.910195 
C 108.967297 234.533485 137.228802 253.105792 169.573562 263.536782 
C 201.918321 273.967771 235.705528 275.405799 263.493943 267.534157 
C 291.282357 259.662514 310.803178 243.123886 317.757171 221.560713 
z
" clip-path="url(#p598520096b)" style="fill: #ff0000; opacity: 0.5"/>
   </g>
   <g id="PathCollection_1">
    <defs>
     <path id="m961df0ff0e" d="M 0 3 
C 0.795609 3 1.55874 2.683901 2.12132 2.12132 
C 2.683901 1.55874 3 0.795609 3 0 
C 3 -0.795609 2.683901 -1.55874 2.12132 -2.12132 
C 1.55874 -2.683901 0.795609 -3 0 -3 
C -0.795609 -3 -1.55874 -2.683901 -2.12132 -2.12132 
C -2.683901 -1.55874 -3 -0.795609 -3 0 
C -3 0.795609 -2.683901 1.55874 -2.12132 2.12132 
C -1.55874 2.683901 -0.795609 3 0 3 
z
" style="stroke: #0000ff"/>
    </defs>
    <g clip-path="url(#p598520096b)">
     <use xlink:href="#m961df0ff0e" x="313.055571" y="172.361204" style="fill: #0000ff; stroke: #0000ff"/>
    </g>
   </g>
   <g id="matplotlib.axis_1">
    <g id="xtick_1">
     <g id="line2d_1">
      <defs>
       <path id="m641642209e" d="M 0 0 
L 0 3.5 
" style="stroke: #000000; stroke-width: 0.8"/>
      </defs>
      <g>
       <use xlink:href="#m641642209e" x="98.51579" y="276.834773" style="stroke: #000000; stroke-width: 0.8"/>
      </g>
     </g>
     <g id="text_1">
      <!-- −0.10 -->
      <g transform="translate(83.193134 291.43321) scale(0.1 -0.1)">
       <defs>
        <path id="DejaVuSans-2212" d="M 678 2272 
L 4684 2272 
L 4684 1741 
L 678 1741 
L 678 2272 
z
" transform="scale(0.015625)"/>
        <path id="DejaVuSans-30" d="M 2034 4250 
Q 1547 4250 1301 3770 
Q 1056 3291 1056 2328 
Q 1056 1369 1301 889 
Q 1547 409 2034 409 
Q 2525 409 2770 889 
Q 3016 1369 3016 2328 
Q 3016 3291 2770 3770 
Q 2525 4250 2034 4250 
z
M 2034 4750 
Q 2819 4750 3233 4129 
Q 3647 3509 3647 2328 
Q 3647 1150 3233 529 
Q 2819 -91 2034 -91 
Q 1250 -91 836 529 
Q 422 1150 422 2328 
Q 422 3509 836 4129 
Q 1250 4750 2034 4750 
z
" transform="scale(0.015625)"/>
        <path id="DejaVuSans-2e" d="M 684 794 
L 1344 794 
L 1344 0 
L 684 0 
L 684 794 
z
" transform="scale(0.015625)"/>
        <path id="DejaVuSans-31" d="M 794 531 
L 1825 531 
L 1825 4091 
L 703 3866 
L 703 4441 
L 1819 4666 
L 2450 4666 
L 2450 531 
L 3481 531 
L 3481 0 
L 794 0 
L 794 531 
z
" transform="scale(0.015625)"/>
       </defs>
       <use xlink:href="#DejaVuSans-2212"/>
       <use xlink:href="#DejaVuSans-30" x="83.789062"/>
       <use xlink:href="#DejaVuSans-2e" x="147.412109"/>
       <use xlink:href="#DejaVuSans-31" x="179.199219"/>
       <use xlink:href="#DejaVuSans-30" x="242.822266"/>
      </g>
     </g>
    </g>
    <g id="xtick_2">
     <g id="line2d_2">
      <g>
       <use xlink:href="#m641642209e" x="141.231641" y="276.834773" style="stroke: #000000; stroke-width: 0.8"/>
      </g>
     </g>
     <g id="text_2">
      <!-- −0.05 -->
      <g transform="translate(125.908985 291.43321) scale(0.1 -0.1)">
       <defs>
        <path id="DejaVuSans-35" d="M 691 4666 
L 3169 4666 
L 3169 4134 
L 1269 4134 
L 1269 2991 
Q 1406 3038 1543 3061 
Q 1681 3084 1819 3084 
Q 2600 3084 3056 2656 
Q 3513 2228 3513 1497 
Q 3513 744 3044 326 
Q 2575 -91 1722 -91 
Q 1428 -91 1123 -41 
Q 819 9 494 109 
L 494 744 
Q 775 591 1075 516 
Q 1375 441 1709 441 
Q 2250 441 2565 725 
Q 2881 1009 2881 1497 
Q 2881 1984 2565 2268 
Q 2250 2553 1709 2553 
Q 1456 2553 1204 2497 
Q 953 2441 691 2322 
L 691 4666 
z
" transform="scale(0.015625)"/>
       </defs>
       <use xlink:href="#DejaVuSans-2212"/>
       <use xlink:href="#DejaVuSans-30" x="83.789062"/>
       <use xlink:href="#DejaVuSans-2e" x="147.412109"/>
       <use xlink:href="#DejaVuSans-30" x="179.199219"/>
       <use xlink:href="#DejaVuSans-35" x="242.822266"/>
      </g>
     </g>
    </g>
    <g id="xtick_3">
     <g id="line2d_3">
      <g>
       <use xlink:href="#m641642209e" x="183.947492" y="276.834773" style="stroke: #000000; stroke-width: 0.8"/>
      </g>
     </g>
     <g id="text_3">
      <!-- 0.00 -->
      <g transform="translate(172.814679 291.43321) scale(0.1 -0.1)">
       <use xlink:href="#DejaVuSans-30"/>
       <use xlink:href="#DejaVuSans-2e" x="63.623047"/>
       <use xlink:href="#DejaVuSans-30" x="95.410156"/>
       <use xlink:href="#DejaVuSans-30" x="159.033203"/>
      </g>
     </g>
    </g>
    <g id="xtick_4">
     <g id="line2d_4">
      <g>
       <use xlink:href="#m641642209e" x="226.663343" y="276.834773" style="stroke: #000000; stroke-width: 0.8"/>
      </g>
     </g>
     <g id="text_4">
      <!-- 0.05 -->
      <g transform="translate(215.53053 291.43321) scale(0.1 -0.1)">
       <use xlink:href="#DejaVuSans-30"/>
       <use xlink:href="#DejaVuSans-2e" x="63.623047"/>
       <use xlink:href="#DejaVuSans-30" x="95.410156"/>
       <use xlink:href="#DejaVuSans-35" x="159.033203"/>
      </g>
     </g>
    </g>
    <g id="xtick_5">
     <g id="line2d_5">
      <g>
       <use xlink:href="#m641642209e" x="269.379193" y="276.834773" style="stroke: #000000; stroke-width: 0.8"/>
      </g>
     </g>
     <g id="text_5">
      <!-- 0.10 -->
      <g transform="translate(258.246381 291.43321) scale(0.1 -0.1)">
       <use xlink:href="#DejaVuSans-30"/>
       <use xlink:href="#DejaVuSans-2e" x="63.623047"/>
       <use xlink:href="#DejaVuSans-31" x="95.410156"/>
       <use xlink:href="#DejaVuSans-30" x="159.033203"/>
      </g>
     </g>
    </g>
    <g id="xtick_6">
     <g id="line2d_6">
      <g>
       <use xlink:href="#m641642209e" x="312.095044" y="276.834773" style="stroke: #000000; stroke-width: 0.8"/>
      </g>
     </g>
     <g id="text_6">
      <!-- 0.15 -->
      <g transform="translate(300.962232 291.43321) scale(0.1 -0.1)">
       <use xlink:href="#DejaVuSans-30"/>
       <use xlink:href="#DejaVuSans-2e" x="63.623047"/>
       <use xlink:href="#DejaVuSans-31" x="95.410156"/>
       <use xlink:href="#DejaVuSans-35" x="159.033203"/>
      </g>
     </g>
    </g>
    <g id="xtick_7">
     <g id="line2d_7">
      <g>
       <use xlink:href="#m641642209e" x="354.810895" y="276.834773" style="stroke: #000000; stroke-width: 0.8"/>
      </g>
     </g>
     <g id="text_7">
      <!-- 0.20 -->
      <g transform="translate(343.678083 291.43321) scale(0.1 -0.1)">
       <defs>
        <path id="DejaVuSans-32" d="M 1228 531 
L 3431 531 
L 3431 0 
L 469 0 
L 469 531 
Q 828 903 1448 1529 
Q 2069 2156 2228 2338 
Q 2531 2678 2651 2914 
Q 2772 3150 2772 3378 
Q 2772 3750 2511 3984 
Q 2250 4219 1831 4219 
Q 1534 4219 1204 4116 
Q 875 4013 500 3803 
L 500 4441 
Q 881 4594 1212 4672 
Q 1544 4750 1819 4750 
Q 2544 4750 2975 4387 
Q 3406 4025 3406 3419 
Q 3406 3131 3298 2873 
Q 3191 2616 2906 2266 
Q 2828 2175 2409 1742 
Q 1991 1309 1228 531 
z
" transform="scale(0.015625)"/>
       </defs>
       <use xlink:href="#DejaVuSans-30"/>
       <use xlink:href="#DejaVuSans-2e" x="63.623047"/>
       <use xlink:href="#DejaVuSans-32" x="95.410156"/>
       <use xlink:href="#DejaVuSans-30" x="159.033203"/>
      </g>
     </g>
    </g>
    <g id="xtick_8">
     <g id="line2d_8">
      <g>
       <use xlink:href="#m641642209e" x="397.526746" y="276.834773" style="stroke: #000000; stroke-width: 0.8"/>
      </g>
     </g>
     <g id="text_8">
      <!-- 0.25 -->
      <g transform="translate(386.393933 291.43321) scale(0.1 -0.1)">
       <use xlink:href="#DejaVuSans-30"/>
       <use xlink:href="#DejaVuSans-2e" x="63.623047"/>
       <use xlink:href="#DejaVuSans-32" x="95.410156"/>
       <use xlink:href="#DejaVuSans-35" x="159.033203"/>
      </g>
     </g>
    </g>
    <g id="text_9">
     <!--  Position in x -->
     <g transform="translate(204.411563 305.111335) scale(0.1 -0.1)">
      <defs>
       <path id="DejaVuSans-20" transform="scale(0.015625)"/>
       <path id="DejaVuSans-50" d="M 1259 4147 
L 1259 2394 
L 2053 2394 
Q 2494 2394 2734 2622 
Q 2975 2850 2975 3272 
Q 2975 3691 2734 3919 
Q 2494 4147 2053 4147 
L 1259 4147 
z
M 628 4666 
L 2053 4666 
Q 2838 4666 3239 4311 
Q 3641 3956 3641 3272 
Q 3641 2581 3239 2228 
Q 2838 1875 2053 1875 
L 1259 1875 
L 1259 0 
L 628 0 
L 628 4666 
z
" transform="scale(0.015625)"/>
       <path id="DejaVuSans-6f" d="M 1959 3097 
Q 1497 3097 1228 2736 
Q 959 2375 959 1747 
Q 959 1119 1226 758 
Q 1494 397 1959 397 
Q 2419 397 2687 759 
Q 2956 1122 2956 1747 
Q 2956 2369 2687 2733 
Q 2419 3097 1959 3097 
z
M 1959 3584 
Q 2709 3584 3137 3096 
Q 3566 2609 3566 1747 
Q 3566 888 3137 398 
Q 2709 -91 1959 -91 
Q 1206 -91 779 398 
Q 353 888 353 1747 
Q 353 2609 779 3096 
Q 1206 3584 1959 3584 
z
" transform="scale(0.015625)"/>
       <path id="DejaVuSans-73" d="M 2834 3397 
L 2834 2853 
Q 2591 2978 2328 3040 
Q 2066 3103 1784 3103 
Q 1356 3103 1142 2972 
Q 928 2841 928 2578 
Q 928 2378 1081 2264 
Q 1234 2150 1697 2047 
L 1894 2003 
Q 2506 1872 2764 1633 
Q 3022 1394 3022 966 
Q 3022 478 2636 193 
Q 2250 -91 1575 -91 
Q 1294 -91 989 -36 
Q 684 19 347 128 
L 347 722 
Q 666 556 975 473 
Q 1284 391 1588 391 
Q 1994 391 2212 530 
Q 2431 669 2431 922 
Q 2431 1156 2273 1281 
Q 2116 1406 1581 1522 
L 1381 1569 
Q 847 1681 609 1914 
Q 372 2147 372 2553 
Q 372 3047 722 3315 
Q 1072 3584 1716 3584 
Q 2034 3584 2315 3537 
Q 2597 3491 2834 3397 
z
" transform="scale(0.015625)"/>
       <path id="DejaVuSans-69" d="M 603 3500 
L 1178 3500 
L 1178 0 
L 603 0 
L 603 3500 
z
M 603 4863 
L 1178 4863 
L 1178 4134 
L 603 4134 
L 603 4863 
z
" transform="scale(0.015625)"/>
       <path id="DejaVuSans-74" d="M 1172 4494 
L 1172 3500 
L 2356 3500 
L 2356 3053 
L 1172 3053 
L 1172 1153 
Q 1172 725 1289 603 
Q 1406 481 1766 481 
L 2356 481 
L 2356 0 
L 1766 0 
Q 1100 0 847 248 
Q 594 497 594 1153 
L 594 3053 
L 172 3053 
L 172 3500 
L 594 3500 
L 594 4494 
L 1172 4494 
z
" transform="scale(0.015625)"/>
       <path id="DejaVuSans-6e" d="M 3513 2113 
L 3513 0 
L 2938 0 
L 2938 2094 
Q 2938 2591 2744 2837 
Q 2550 3084 2163 3084 
Q 1697 3084 1428 2787 
Q 1159 2491 1159 1978 
L 1159 0 
L 581 0 
L 581 3500 
L 1159 3500 
L 1159 2956 
Q 1366 3272 1645 3428 
Q 1925 3584 2291 3584 
Q 2894 3584 3203 3211 
Q 3513 2838 3513 2113 
z
" transform="scale(0.015625)"/>
       <path id="DejaVuSans-78" d="M 3513 3500 
L 2247 1797 
L 3578 0 
L 2900 0 
L 1881 1375 
L 863 0 
L 184 0 
L 1544 1831 
L 300 3500 
L 978 3500 
L 1906 2253 
L 2834 3500 
L 3513 3500 
z
" transform="scale(0.015625)"/>
      </defs>
      <use xlink:href="#DejaVuSans-20"/>
      <use xlink:href="#DejaVuSans-50" x="31.787109"/>
      <use xlink:href="#DejaVuSans-6f" x="88.464844"/>
      <use xlink:href="#DejaVuSans-73" x="149.646484"/>
      <use xlink:href="#DejaVuSans-69" x="201.746094"/>
      <use xlink:href="#DejaVuSans-74" x="229.529297"/>
      <use xlink:href="#DejaVuSans-69" x="268.738281"/>
      <use xlink:href="#DejaVuSans-6f" x="296.521484"/>
      <use xlink:href="#DejaVuSans-6e" x="357.703125"/>
      <use xlink:href="#DejaVuSans-20" x="421.082031"/>
      <use xlink:href="#DejaVuSans-69" x="452.869141"/>
      <use xlink:href="#DejaVuSans-6e" x="480.652344"/>
      <use xlink:href="#DejaVuSans-20" x="544.03125"/>
      <use xlink:href="#DejaVuSans-78" x="575.818359"/>
     </g>
    </g>
   </g>
   <g id="matplotlib.axis_2">
    <g id="ytick_1">
     <g id="line2d_9">
      <defs>
       <path id="m7050a2d45d" d="M 0 0 
L -3.5 0 
" style="stroke: #000000; stroke-width: 0.8"/>
      </defs>
      <g>
       <use xlink:href="#m7050a2d45d" x="57.6" y="269.6276" style="stroke: #000000; stroke-width: 0.8"/>
      </g>
     </g>
     <g id="text_10">
      <!-- −0.10 -->
      <g transform="translate(19.954687 273.426819) scale(0.1 -0.1)">
       <use xlink:href="#DejaVuSans-2212"/>
       <use xlink:href="#DejaVuSans-30" x="83.789062"/>
       <use xlink:href="#DejaVuSans-2e" x="147.412109"/>
       <use xlink:href="#DejaVuSans-31" x="179.199219"/>
       <use xlink:href="#DejaVuSans-30" x="242.822266"/>
      </g>
     </g>
    </g>
    <g id="ytick_2">
     <g id="line2d_10">
      <g>
       <use xlink:href="#m7050a2d45d" x="57.6" y="226.911749" style="stroke: #000000; stroke-width: 0.8"/>
      </g>
     </g>
     <g id="text_11">
      <!-- −0.05 -->
      <g transform="translate(19.954687 230.710968) scale(0.1 -0.1)">
       <use xlink:href="#DejaVuSans-2212"/>
       <use xlink:href="#DejaVuSans-30" x="83.789062"/>
       <use xlink:href="#DejaVuSans-2e" x="147.412109"/>
       <use xlink:href="#DejaVuSans-30" x="179.199219"/>
       <use xlink:href="#DejaVuSans-35" x="242.822266"/>
      </g>
     </g>
    </g>
    <g id="ytick_3">
     <g id="line2d_11">
      <g>
       <use xlink:href="#m7050a2d45d" x="57.6" y="184.195899" style="stroke: #000000; stroke-width: 0.8"/>
      </g>
     </g>
     <g id="text_12">
      <!-- 0.00 -->
      <g transform="translate(28.334375 187.995117) scale(0.1 -0.1)">
       <use xlink:href="#DejaVuSans-30"/>
       <use xlink:href="#DejaVuSans-2e" x="63.623047"/>
       <use xlink:href="#DejaVuSans-30" x="95.410156"/>
       <use xlink:href="#DejaVuSans-30" x="159.033203"/>
      </g>
     </g>
    </g>
    <g id="ytick_4">
     <g id="line2d_12">
      <g>
       <use xlink:href="#m7050a2d45d" x="57.6" y="141.480048" style="stroke: #000000; stroke-width: 0.8"/>
      </g>
     </g>
     <g id="text_13">
      <!-- 0.05 -->
      <g transform="translate(28.334375 145.279267) scale(0.1 -0.1)">
       <use xlink:href="#DejaVuSans-30"/>
       <use xlink:href="#DejaVuSans-2e" x="63.623047"/>
       <use xlink:href="#DejaVuSans-30" x="95.410156"/>
       <use xlink:href="#DejaVuSans-35" x="159.033203"/>
      </g>
     </g>
    </g>
    <g id="ytick_5">
     <g id="line2d_13">
      <g>
       <use xlink:href="#m7050a2d45d" x="57.6" y="98.764197" style="stroke: #000000; stroke-width: 0.8"/>
      </g>
     </g>
     <g id="text_14">
      <!-- 0.10 -->
      <g transform="translate(28.334375 102.563416) scale(0.1 -0.1)">
       <use xlink:href="#DejaVuSans-30"/>
       <use xlink:href="#DejaVuSans-2e" x="63.623047"/>
       <use xlink:href="#DejaVuSans-31" x="95.410156"/>
       <use xlink:href="#DejaVuSans-30" x="159.033203"/>
      </g>
     </g>
    </g>
    <g id="text_15">
     <!--  Position in y -->
     <g transform="translate(13.875 206.276437) rotate(-90) scale(0.1 -0.1)">
      <defs>
       <path id="DejaVuSans-79" d="M 2059 -325 
Q 1816 -950 1584 -1140 
Q 1353 -1331 966 -1331 
L 506 -1331 
L 506 -850 
L 844 -850 
Q 1081 -850 1212 -737 
Q 1344 -625 1503 -206 
L 1606 56 
L 191 3500 
L 800 3500 
L 1894 763 
L 2988 3500 
L 3597 3500 
L 2059 -325 
z
" transform="scale(0.015625)"/>
      </defs>
      <use xlink:href="#DejaVuSans-20"/>
      <use xlink:href="#DejaVuSans-50" x="31.787109"/>
      <use xlink:href="#DejaVuSans-6f" x="88.464844"/>
      <use xlink:href="#DejaVuSans-73" x="149.646484"/>
      <use xlink:href="#DejaVuSans-69" x="201.746094"/>
      <use xlink:href="#DejaVuSans-74" x="229.529297"/>
      <use xlink:href="#DejaVuSans-69" x="268.738281"/>
      <use xlink:href="#DejaVuSans-6f" x="296.521484"/>
      <use xlink:href="#DejaVuSans-6e" x="357.703125"/>
      <use xlink:href="#DejaVuSans-20" x="421.082031"/>
      <use xlink:href="#DejaVuSans-69" x="452.869141"/>
      <use xlink:href="#DejaVuSans-6e" x="480.652344"/>
      <use xlink:href="#DejaVuSans-20" x="544.03125"/>
      <use xlink:href="#DejaVuSans-79" x="575.818359"/>
     </g>
    </g>
   </g>
   <g id="line2d_14">
    <path d="M 227.62387 252.707164 
L 229.349763 251.084013 
L 231.075656 249.460862 
L 232.801548 247.837712 
L 234.527441 246.214561 
L 236.253334 244.59141 
L 237.979227 242.968259 
L 239.70512 241.345109 
L 241.431013 239.721958 
L 243.156906 238.098807 
L 244.882799 236.475657 
L 246.608692 234.852506 
L 248.334585 233.229355 
L 250.060478 231.606205 
L 251.786371 229.983054 
L 253.512264 228.359903 
L 255.238157 226.736752 
L 256.96405 225.113602 
L 258.689943 223.490451 
L 260.415836 221.8673 
L 262.141729 220.24415 
L 263.867622 218.620999 
L 265.593515 216.997848 
L 267.319408 215.374697 
L 269.045301 213.751547 
L 270.771194 212.128396 
L 272.497087 210.505245 
L 274.22298 208.882095 
L 275.948872 207.258944 
L 277.674765 205.635793 
L 279.400658 204.012642 
L 281.126551 202.389492 
L 282.852444 200.766341 
L 284.578337 199.14319 
L 286.30423 197.52004 
L 288.030123 195.896889 
L 289.756016 194.273738 
L 291.481909 192.650587 
L 293.207802 191.027437 
L 294.933695 189.404286 
L 296.659588 187.781135 
L 298.385481 186.157985 
L 300.111374 184.534834 
L 301.837267 182.911683 
L 303.56316 181.288532 
L 305.289053 179.665382 
L 307.014946 178.042231 
L 308.740839 176.41908 
L 310.466732 174.79593 
L 312.192625 173.172779 
L 313.918518 171.549628 
L 315.644411 169.926478 
L 317.370304 168.303327 
L 319.096197 166.680176 
L 320.822089 165.057025 
L 322.547982 163.433875 
L 324.273875 161.810724 
L 325.999768 160.187573 
L 327.725661 158.564423 
L 329.451554 156.941272 
L 331.177447 155.318121 
L 332.90334 153.69497 
L 334.629233 152.07182 
L 336.355126 150.448669 
L 338.081019 148.825518 
L 339.806912 147.202368 
L 341.532805 145.579217 
L 343.258698 143.956066 
L 344.984591 142.332915 
L 346.710484 140.709765 
L 348.436377 139.086614 
L 350.16227 137.463463 
L 351.888163 135.840313 
L 353.614056 134.217162 
L 355.339949 132.594011 
L 357.065842 130.97086 
L 358.791735 129.34771 
L 360.517628 127.724559 
L 362.243521 126.101408 
L 363.969414 124.478258 
L 365.695306 122.855107 
L 367.421199 121.231956 
L 369.147092 119.608805 
L 370.872985 117.985655 
L 372.598878 116.362504 
L 374.324771 114.739353 
L 376.050664 113.116203 
L 377.776557 111.493052 
L 379.50245 109.869901 
L 381.228343 108.246751 
L 382.954236 106.6236 
L 384.680129 105.000449 
L 386.406022 103.377298 
L 388.131915 101.754148 
L 389.857808 100.130997 
L 391.583701 98.507846 
L 393.309594 96.884696 
L 395.035487 95.261545 
L 396.76138 93.638394 
L 398.487273 92.015243 
" clip-path="url(#p598520096b)" style="fill: none; stroke: #0000ff; stroke-width: 1.5; stroke-linecap: square"/>
   </g>
   <g id="line2d_15">
    <path d="M 227.62387 81.521843 
L 229.349763 83.356982 
L 231.075656 85.19212 
L 232.801548 87.027259 
L 234.527441 88.862398 
L 236.253334 90.697536 
L 237.979227 92.532675 
L 239.70512 94.367813 
L 241.431013 96.202952 
L 243.156906 98.038091 
L 244.882799 99.873229 
L 246.608692 101.708368 
L 248.334585 103.543506 
L 250.060478 105.378645 
L 251.786371 107.213783 
L 253.512264 109.048922 
L 255.238157 110.884061 
L 256.96405 112.719199 
L 258.689943 114.554338 
L 260.415836 116.389476 
L 262.141729 118.224615 
L 263.867622 120.059754 
L 265.593515 121.894892 
L 267.319408 123.730031 
L 269.045301 125.565169 
L 270.771194 127.400308 
L 272.497087 129.235447 
L 274.22298 131.070585 
L 275.948872 132.905724 
L 277.674765 134.740862 
L 279.400658 136.576001 
L 281.126551 138.41114 
L 282.852444 140.246278 
L 284.578337 142.081417 
L 286.30423 143.916555 
L 288.030123 145.751694 
L 289.756016 147.586833 
L 291.481909 149.421971 
L 293.207802 151.25711 
L 294.933695 153.092248 
L 296.659588 154.927387 
L 298.385481 156.762526 
L 300.111374 158.597664 
L 301.837267 160.432803 
L 303.56316 162.267941 
L 305.289053 164.10308 
L 307.014946 165.938219 
L 308.740839 167.773357 
L 310.466732 169.608496 
L 312.192625 171.443634 
L 313.918518 173.278773 
L 315.644411 175.113911 
L 317.370304 176.94905 
L 319.096197 178.784189 
L 320.822089 180.619327 
L 322.547982 182.454466 
L 324.273875 184.289604 
L 325.999768 186.124743 
L 327.725661 187.959882 
L 329.451554 189.79502 
L 331.177447 191.630159 
L 332.90334 193.465297 
L 334.629233 195.300436 
L 336.355126 197.135575 
L 338.081019 198.970713 
L 339.806912 200.805852 
L 341.532805 202.64099 
L 343.258698 204.476129 
L 344.984591 206.311268 
L 346.710484 208.146406 
L 348.436377 209.981545 
L 350.16227 211.816683 
L 351.888163 213.651822 
L 353.614056 215.486961 
L 355.339949 217.322099 
L 357.065842 219.157238 
L 358.791735 220.992376 
L 360.517628 222.827515 
L 362.243521 224.662654 
L 363.969414 226.497792 
L 365.695306 228.332931 
L 367.421199 230.168069 
L 369.147092 232.003208 
L 370.872985 233.838346 
L 372.598878 235.673485 
L 374.324771 237.508624 
L 376.050664 239.343762 
L 377.776557 241.178901 
L 379.50245 243.014039 
L 381.228343 244.849178 
L 382.954236 246.684317 
L 384.680129 248.519455 
L 386.406022 250.354594 
L 388.131915 252.189732 
L 389.857808 254.024871 
L 391.583701 255.86001 
L 393.309594 257.695148 
L 395.035487 259.530287 
L 396.76138 261.365425 
L 398.487273 263.200564 
" clip-path="url(#p598520096b)" style="fill: none; stroke: #ffa500; stroke-width: 1.5; stroke-linecap: square"/>
   </g>
   <g id="patch_4">
    <path d="M 57.6 276.834773 
L 57.6 72.221227 
" style="fill: none; stroke: #000000; stroke-width: 0.8; stroke-linejoin: miter; stroke-linecap: square"/>
   </g>
   <g id="patch_5">
    <path d="M 414.72 276.834773 
L 414.72 72.221227 
" style="fill: none; stroke: #000000; stroke-width: 0.8; stroke-linejoin: miter; stroke-linecap: square"/>
   </g>
   <g id="patch_6">
    <path d="M 57.6 276.834773 
L 414.72 276.834773 
" style="fill: none; stroke: #000000; stroke-width: 0.8; stroke-linejoin: miter; stroke-linecap: square"/>
   </g>
   <g id="patch_7">
    <path d="M 57.6 72.221227 
L 414.72 72.221227 
" style="fill: none; stroke: #000000; stroke-width: 0.8; stroke-linejoin: miter; stroke-linecap: square"/>
   </g>
   <g id="legend_1">
    <g id="patch_8">
     <path d="M 64.6 124.255602 
L 174.7375 124.255602 
Q 176.7375 124.255602 176.7375 122.255602 
L 176.7375 79.221227 
Q 176.7375 77.221227 174.7375 77.221227 
L 64.6 77.221227 
Q 62.6 77.221227 62.6 79.221227 
L 62.6 122.255602 
Q 62.6 124.255602 64.6 124.255602 
z
" style="fill: #ffffff; opacity: 0.8; stroke: #cccccc; stroke-linejoin: miter"/>
    </g>
    <g id="PathCollection_2">
     <g>
      <use xlink:href="#m961df0ff0e" x="76.6" y="86.194665" style="fill: #0000ff; stroke: #0000ff"/>
     </g>
    </g>
    <g id="text_16">
     <!-- intersection -->
     <g transform="translate(94.6 88.819665) scale(0.1 -0.1)">
      <defs>
       <path id="DejaVuSans-65" d="M 3597 1894 
L 3597 1613 
L 953 1613 
Q 991 1019 1311 708 
Q 1631 397 2203 397 
Q 2534 397 2845 478 
Q 3156 559 3463 722 
L 3463 178 
Q 3153 47 2828 -22 
Q 2503 -91 2169 -91 
Q 1331 -91 842 396 
Q 353 884 353 1716 
Q 353 2575 817 3079 
Q 1281 3584 2069 3584 
Q 2775 3584 3186 3129 
Q 3597 2675 3597 1894 
z
M 3022 2063 
Q 3016 2534 2758 2815 
Q 2500 3097 2075 3097 
Q 1594 3097 1305 2825 
Q 1016 2553 972 2059 
L 3022 2063 
z
" transform="scale(0.015625)"/>
       <path id="DejaVuSans-72" d="M 2631 2963 
Q 2534 3019 2420 3045 
Q 2306 3072 2169 3072 
Q 1681 3072 1420 2755 
Q 1159 2438 1159 1844 
L 1159 0 
L 581 0 
L 581 3500 
L 1159 3500 
L 1159 2956 
Q 1341 3275 1631 3429 
Q 1922 3584 2338 3584 
Q 2397 3584 2469 3576 
Q 2541 3569 2628 3553 
L 2631 2963 
z
" transform="scale(0.015625)"/>
       <path id="DejaVuSans-63" d="M 3122 3366 
L 3122 2828 
Q 2878 2963 2633 3030 
Q 2388 3097 2138 3097 
Q 1578 3097 1268 2742 
Q 959 2388 959 1747 
Q 959 1106 1268 751 
Q 1578 397 2138 397 
Q 2388 397 2633 464 
Q 2878 531 3122 666 
L 3122 134 
Q 2881 22 2623 -34 
Q 2366 -91 2075 -91 
Q 1284 -91 818 406 
Q 353 903 353 1747 
Q 353 2603 823 3093 
Q 1294 3584 2113 3584 
Q 2378 3584 2631 3529 
Q 2884 3475 3122 3366 
z
" transform="scale(0.015625)"/>
      </defs>
      <use xlink:href="#DejaVuSans-69"/>
      <use xlink:href="#DejaVuSans-6e" x="27.783203"/>
      <use xlink:href="#DejaVuSans-74" x="91.162109"/>
      <use xlink:href="#DejaVuSans-65" x="130.371094"/>
      <use xlink:href="#DejaVuSans-72" x="191.894531"/>
      <use xlink:href="#DejaVuSans-73" x="233.007812"/>
      <use xlink:href="#DejaVuSans-65" x="285.107422"/>
      <use xlink:href="#DejaVuSans-63" x="346.630859"/>
      <use xlink:href="#DejaVuSans-74" x="401.611328"/>
      <use xlink:href="#DejaVuSans-69" x="440.820312"/>
      <use xlink:href="#DejaVuSans-6f" x="468.603516"/>
      <use xlink:href="#DejaVuSans-6e" x="529.785156"/>
     </g>
    </g>
    <g id="line2d_16">
     <path d="M 66.6 99.99779 
L 76.6 99.99779 
L 86.6 99.99779 
" style="fill: none; stroke: #0000ff; stroke-width: 1.5; stroke-linecap: square"/>
    </g>
    <g id="text_17">
     <!-- tagente -->
     <g transform="translate(94.6 103.49779) scale(0.1 -0.1)">
      <defs>
       <path id="DejaVuSans-61" d="M 2194 1759 
Q 1497 1759 1228 1600 
Q 959 1441 959 1056 
Q 959 750 1161 570 
Q 1363 391 1709 391 
Q 2188 391 2477 730 
Q 2766 1069 2766 1631 
L 2766 1759 
L 2194 1759 
z
M 3341 1997 
L 3341 0 
L 2766 0 
L 2766 531 
Q 2569 213 2275 61 
Q 1981 -91 1556 -91 
Q 1019 -91 701 211 
Q 384 513 384 1019 
Q 384 1609 779 1909 
Q 1175 2209 1959 2209 
L 2766 2209 
L 2766 2266 
Q 2766 2663 2505 2880 
Q 2244 3097 1772 3097 
Q 1472 3097 1187 3025 
Q 903 2953 641 2809 
L 641 3341 
Q 956 3463 1253 3523 
Q 1550 3584 1831 3584 
Q 2591 3584 2966 3190 
Q 3341 2797 3341 1997 
z
" transform="scale(0.015625)"/>
       <path id="DejaVuSans-67" d="M 2906 1791 
Q 2906 2416 2648 2759 
Q 2391 3103 1925 3103 
Q 1463 3103 1205 2759 
Q 947 2416 947 1791 
Q 947 1169 1205 825 
Q 1463 481 1925 481 
Q 2391 481 2648 825 
Q 2906 1169 2906 1791 
z
M 3481 434 
Q 3481 -459 3084 -895 
Q 2688 -1331 1869 -1331 
Q 1566 -1331 1297 -1286 
Q 1028 -1241 775 -1147 
L 775 -588 
Q 1028 -725 1275 -790 
Q 1522 -856 1778 -856 
Q 2344 -856 2625 -561 
Q 2906 -266 2906 331 
L 2906 616 
Q 2728 306 2450 153 
Q 2172 0 1784 0 
Q 1141 0 747 490 
Q 353 981 353 1791 
Q 353 2603 747 3093 
Q 1141 3584 1784 3584 
Q 2172 3584 2450 3431 
Q 2728 3278 2906 2969 
L 2906 3500 
L 3481 3500 
L 3481 434 
z
" transform="scale(0.015625)"/>
      </defs>
      <use xlink:href="#DejaVuSans-74"/>
      <use xlink:href="#DejaVuSans-61" x="39.208984"/>
      <use xlink:href="#DejaVuSans-67" x="100.488281"/>
      <use xlink:href="#DejaVuSans-65" x="163.964844"/>
      <use xlink:href="#DejaVuSans-6e" x="225.488281"/>
      <use xlink:href="#DejaVuSans-74" x="288.867188"/>
      <use xlink:href="#DejaVuSans-65" x="328.076172"/>
     </g>
    </g>
    <g id="line2d_17">
     <path d="M 66.6 114.675915 
L 76.6 114.675915 
L 86.6 114.675915 
" style="fill: none; stroke: #ffa500; stroke-width: 1.5; stroke-linecap: square"/>
    </g>
    <g id="text_18">
     <!-- perpendiculaire -->
     <g transform="translate(94.6 118.175915) scale(0.1 -0.1)">
      <defs>
       <path id="DejaVuSans-70" d="M 1159 525 
L 1159 -1331 
L 581 -1331 
L 581 3500 
L 1159 3500 
L 1159 2969 
Q 1341 3281 1617 3432 
Q 1894 3584 2278 3584 
Q 2916 3584 3314 3078 
Q 3713 2572 3713 1747 
Q 3713 922 3314 415 
Q 2916 -91 2278 -91 
Q 1894 -91 1617 61 
Q 1341 213 1159 525 
z
M 3116 1747 
Q 3116 2381 2855 2742 
Q 2594 3103 2138 3103 
Q 1681 3103 1420 2742 
Q 1159 2381 1159 1747 
Q 1159 1113 1420 752 
Q 1681 391 2138 391 
Q 2594 391 2855 752 
Q 3116 1113 3116 1747 
z
" transform="scale(0.015625)"/>
       <path id="DejaVuSans-64" d="M 2906 2969 
L 2906 4863 
L 3481 4863 
L 3481 0 
L 2906 0 
L 2906 525 
Q 2725 213 2448 61 
Q 2172 -91 1784 -91 
Q 1150 -91 751 415 
Q 353 922 353 1747 
Q 353 2572 751 3078 
Q 1150 3584 1784 3584 
Q 2172 3584 2448 3432 
Q 2725 3281 2906 2969 
z
M 947 1747 
Q 947 1113 1208 752 
Q 1469 391 1925 391 
Q 2381 391 2643 752 
Q 2906 1113 2906 1747 
Q 2906 2381 2643 2742 
Q 2381 3103 1925 3103 
Q 1469 3103 1208 2742 
Q 947 2381 947 1747 
z
" transform="scale(0.015625)"/>
       <path id="DejaVuSans-75" d="M 544 1381 
L 544 3500 
L 1119 3500 
L 1119 1403 
Q 1119 906 1312 657 
Q 1506 409 1894 409 
Q 2359 409 2629 706 
Q 2900 1003 2900 1516 
L 2900 3500 
L 3475 3500 
L 3475 0 
L 2900 0 
L 2900 538 
Q 2691 219 2414 64 
Q 2138 -91 1772 -91 
Q 1169 -91 856 284 
Q 544 659 544 1381 
z
M 1991 3584 
L 1991 3584 
z
" transform="scale(0.015625)"/>
       <path id="DejaVuSans-6c" d="M 603 4863 
L 1178 4863 
L 1178 0 
L 603 0 
L 603 4863 
z
" transform="scale(0.015625)"/>
      </defs>
      <use xlink:href="#DejaVuSans-70"/>
      <use xlink:href="#DejaVuSans-65" x="63.476562"/>
      <use xlink:href="#DejaVuSans-72" x="125"/>
      <use xlink:href="#DejaVuSans-70" x="166.113281"/>
      <use xlink:href="#DejaVuSans-65" x="229.589844"/>
      <use xlink:href="#DejaVuSans-6e" x="291.113281"/>
      <use xlink:href="#DejaVuSans-64" x="354.492188"/>
      <use xlink:href="#DejaVuSans-69" x="417.96875"/>
      <use xlink:href="#DejaVuSans-63" x="445.751953"/>
      <use xlink:href="#DejaVuSans-75" x="500.732422"/>
      <use xlink:href="#DejaVuSans-6c" x="564.111328"/>
      <use xlink:href="#DejaVuSans-61" x="591.894531"/>
      <use xlink:href="#DejaVuSans-69" x="653.173828"/>
      <use xlink:href="#DejaVuSans-72" x="680.957031"/>
      <use xlink:href="#DejaVuSans-65" x="719.820312"/>
     </g>
    </g>
   </g>
  </g>
  <g id="text_19">
   <!-- Representation insole, tangente and perpendiculaire -->
   <g transform="translate(72.325313 16.030125) scale(0.12 -0.12)">
    <defs>
     <path id="DejaVuSans-52" d="M 2841 2188 
Q 3044 2119 3236 1894 
Q 3428 1669 3622 1275 
L 4263 0 
L 3584 0 
L 2988 1197 
Q 2756 1666 2539 1819 
Q 2322 1972 1947 1972 
L 1259 1972 
L 1259 0 
L 628 0 
L 628 4666 
L 2053 4666 
Q 2853 4666 3247 4331 
Q 3641 3997 3641 3322 
Q 3641 2881 3436 2590 
Q 3231 2300 2841 2188 
z
M 1259 4147 
L 1259 2491 
L 2053 2491 
Q 2509 2491 2742 2702 
Q 2975 2913 2975 3322 
Q 2975 3731 2742 3939 
Q 2509 4147 2053 4147 
L 1259 4147 
z
" transform="scale(0.015625)"/>
     <path id="DejaVuSans-2c" d="M 750 794 
L 1409 794 
L 1409 256 
L 897 -744 
L 494 -744 
L 750 256 
L 750 794 
z
" transform="scale(0.015625)"/>
    </defs>
    <use xlink:href="#DejaVuSans-52"/>
    <use xlink:href="#DejaVuSans-65" x="64.982422"/>
    <use xlink:href="#DejaVuSans-70" x="126.505859"/>
    <use xlink:href="#DejaVuSans-72" x="189.982422"/>
    <use xlink:href="#DejaVuSans-65" x="228.845703"/>
    <use xlink:href="#DejaVuSans-73" x="290.369141"/>
    <use xlink:href="#DejaVuSans-65" x="342.46875"/>
    <use xlink:href="#DejaVuSans-6e" x="403.992188"/>
    <use xlink:href="#DejaVuSans-74" x="467.371094"/>
    <use xlink:href="#DejaVuSans-61" x="506.580078"/>
    <use xlink:href="#DejaVuSans-74" x="567.859375"/>
    <use xlink:href="#DejaVuSans-69" x="607.068359"/>
    <use xlink:href="#DejaVuSans-6f" x="634.851562"/>
    <use xlink:href="#DejaVuSans-6e" x="696.033203"/>
    <use xlink:href="#DejaVuSans-20" x="759.412109"/>
    <use xlink:href="#DejaVuSans-69" x="791.199219"/>
    <use xlink:href="#DejaVuSans-6e" x="818.982422"/>
    <use xlink:href="#DejaVuSans-73" x="882.361328"/>
    <use xlink:href="#DejaVuSans-6f" x="934.460938"/>
    <use xlink:href="#DejaVuSans-6c" x="995.642578"/>
    <use xlink:href="#DejaVuSans-65" x="1023.425781"/>
    <use xlink:href="#DejaVuSans-2c" x="1084.949219"/>
    <use xlink:href="#DejaVuSans-20" x="1116.736328"/>
    <use xlink:href="#DejaVuSans-74" x="1148.523438"/>
    <use xlink:href="#DejaVuSans-61" x="1187.732422"/>
    <use xlink:href="#DejaVuSans-6e" x="1249.011719"/>
    <use xlink:href="#DejaVuSans-67" x="1312.390625"/>
    <use xlink:href="#DejaVuSans-65" x="1375.867188"/>
    <use xlink:href="#DejaVuSans-6e" x="1437.390625"/>
    <use xlink:href="#DejaVuSans-74" x="1500.769531"/>
    <use xlink:href="#DejaVuSans-65" x="1539.978516"/>
    <use xlink:href="#DejaVuSans-20" x="1601.501953"/>
    <use xlink:href="#DejaVuSans-61" x="1633.289062"/>
    <use xlink:href="#DejaVuSans-6e" x="1694.568359"/>
    <use xlink:href="#DejaVuSans-64" x="1757.947266"/>
    <use xlink:href="#DejaVuSans-20" x="1821.423828"/>
    <use xlink:href="#DejaVuSans-70" x="1853.210938"/>
    <use xlink:href="#DejaVuSans-65" x="1916.6875"/>
    <use xlink:href="#DejaVuSans-72" x="1978.210938"/>
    <use xlink:href="#DejaVuSans-70" x="2019.324219"/>
    <use xlink:href="#DejaVuSans-65" x="2082.800781"/>
    <use xlink:href="#DejaVuSans-6e" x="2144.324219"/>
    <use xlink:href="#DejaVuSans-64" x="2207.703125"/>
    <use xlink:href="#DejaVuSans-69" x="2271.179688"/>
    <use xlink:href="#DejaVuSans-63" x="2298.962891"/>
    <use xlink:href="#DejaVuSans-75" x="2353.943359"/>
    <use xlink:href="#DejaVuSans-6c" x="2417.322266"/>
    <use xlink:href="#DejaVuSans-61" x="2445.105469"/>
    <use xlink:href="#DejaVuSans-69" x="2506.384766"/>
    <use xlink:href="#DejaVuSans-72" x="2534.167969"/>
    <use xlink:href="#DejaVuSans-65" x="2573.03125"/>
   </g>
  </g>
 </g>
 <defs>
  <clipPath id="p598520096b">
   <rect x="57.6" y="72.221227" width="357.12" height="204.613545"/>
  </clipPath>
 </defs>
</svg>
