<?xml version="1.0" encoding="utf-8" standalone="no"?>
<!DOCTYPE svg PUBLIC "-//W3C//DTD SVG 1.1//EN"
  "http://www.w3.org/Graphics/SVG/1.1/DTD/svg11.dtd">
<svg xmlns:xlink="http://www.w3.org/1999/xlink" width="460.8pt" height="345.6pt" viewBox="0 0 460.8 345.6" xmlns="http://www.w3.org/2000/svg" version="1.1">
 <metadata>
  <rdf:RDF xmlns:dc="http://purl.org/dc/elements/1.1/" xmlns:cc="http://creativecommons.org/ns#" xmlns:rdf="http://www.w3.org/1999/02/22-rdf-syntax-ns#">
   <cc:Work>
    <dc:type rdf:resource="http://purl.org/dc/dcmitype/StillImage"/>
    <dc:date>2023-07-04T18:17:04.010869</dc:date>
    <dc:format>image/svg+xml</dc:format>
    <dc:creator>
     <cc:Agent>
      <dc:title>Matplotlib v3.6.2, https://matplotlib.org/</dc:title>
     </cc:Agent>
    </dc:creator>
   </cc:Work>
  </rdf:RDF>
 </metadata>
 <defs>
  <style type="text/css">*{stroke-linejoin: round; stroke-linecap: butt}</style>
 </defs>
 <g id="figure_1">
  <g id="patch_1">
   <path d="M 0 345.6 
L 460.8 345.6 
L 460.8 0 
L 0 0 
z
" style="fill: #ffffff"/>
  </g>
  <g id="axes_1">
   <g id="patch_2">
    <path d="M 57.6 279.653331 
L 414.72 279.653331 
L 414.72 69.402669 
L 57.6 69.402669 
z
" style="fill: #ffffff"/>
   </g>
   <g id="patch_3">
    <path d="M 398.487273 206.046619 
C 405.420245 184.548629 399.258331 159.796498 381.358621 137.241596 
C 363.458911 114.686694 335.282837 96.170529 303.035852 85.771071 
C 270.788867 75.371613 237.103795 73.937932 209.399382 81.785779 
C 181.694968 89.633627 162.233157 106.122261 155.300185 127.620251 
C 148.367212 149.118241 154.529126 173.870372 172.428837 196.425274 
C 190.328547 218.980176 218.504621 237.496341 250.751606 247.895799 
C 282.99859 258.295257 316.683662 259.728938 344.388076 251.881091 
C 372.092489 244.033243 391.554301 227.544609 398.487273 206.046619 
z
" clip-path="url(#p14c4a5ea66)" style="fill: #ff0000; opacity: 0.5"/>
   </g>
   <g id="PathCollection_1">
    <defs>
     <path id="mfa6e9a3b43" d="M 0 3 
C 0.795609 3 1.55874 2.683901 2.12132 2.12132 
C 2.683901 1.55874 3 0.795609 3 0 
C 3 -0.795609 2.683901 -1.55874 2.12132 -2.12132 
C 1.55874 -2.683901 0.795609 -3 0 -3 
C -0.795609 -3 -1.55874 -2.683901 -2.12132 -2.12132 
C -2.683901 -1.55874 -3 -0.795609 -3 0 
C -3 0.795609 -2.683901 1.55874 -2.12132 2.12132 
C -1.55874 2.683901 -0.795609 3 0 3 
z
" style="stroke: #0000ff"/>
    </defs>
    <g clip-path="url(#p14c4a5ea66)">
     <use xlink:href="#mfa6e9a3b43" x="159.006179" y="174.528" style="fill: #0000ff; stroke: #0000ff"/>
    </g>
   </g>
   <g id="matplotlib.axis_1">
    <g id="xtick_1">
     <g id="line2d_1">
      <defs>
       <path id="m980be4552a" d="M 0 0 
L 0 3.5 
" style="stroke: #000000; stroke-width: 0.8"/>
      </defs>
      <g>
       <use xlink:href="#m980be4552a" x="94.735182" y="279.653331" style="stroke: #000000; stroke-width: 0.8"/>
      </g>
     </g>
     <g id="text_1">
      <!-- −0.20 -->
      <g transform="translate(79.412526 294.251769) scale(0.1 -0.1)">
       <defs>
        <path id="DejaVuSans-2212" d="M 678 2272 
L 4684 2272 
L 4684 1741 
L 678 1741 
L 678 2272 
z
" transform="scale(0.015625)"/>
        <path id="DejaVuSans-30" d="M 2034 4250 
Q 1547 4250 1301 3770 
Q 1056 3291 1056 2328 
Q 1056 1369 1301 889 
Q 1547 409 2034 409 
Q 2525 409 2770 889 
Q 3016 1369 3016 2328 
Q 3016 3291 2770 3770 
Q 2525 4250 2034 4250 
z
M 2034 4750 
Q 2819 4750 3233 4129 
Q 3647 3509 3647 2328 
Q 3647 1150 3233 529 
Q 2819 -91 2034 -91 
Q 1250 -91 836 529 
Q 422 1150 422 2328 
Q 422 3509 836 4129 
Q 1250 4750 2034 4750 
z
" transform="scale(0.015625)"/>
        <path id="DejaVuSans-2e" d="M 684 794 
L 1344 794 
L 1344 0 
L 684 0 
L 684 794 
z
" transform="scale(0.015625)"/>
        <path id="DejaVuSans-32" d="M 1228 531 
L 3431 531 
L 3431 0 
L 469 0 
L 469 531 
Q 828 903 1448 1529 
Q 2069 2156 2228 2338 
Q 2531 2678 2651 2914 
Q 2772 3150 2772 3378 
Q 2772 3750 2511 3984 
Q 2250 4219 1831 4219 
Q 1534 4219 1204 4116 
Q 875 4013 500 3803 
L 500 4441 
Q 881 4594 1212 4672 
Q 1544 4750 1819 4750 
Q 2544 4750 2975 4387 
Q 3406 4025 3406 3419 
Q 3406 3131 3298 2873 
Q 3191 2616 2906 2266 
Q 2828 2175 2409 1742 
Q 1991 1309 1228 531 
z
" transform="scale(0.015625)"/>
       </defs>
       <use xlink:href="#DejaVuSans-2212"/>
       <use xlink:href="#DejaVuSans-30" x="83.789062"/>
       <use xlink:href="#DejaVuSans-2e" x="147.412109"/>
       <use xlink:href="#DejaVuSans-32" x="179.199219"/>
       <use xlink:href="#DejaVuSans-30" x="242.822266"/>
      </g>
     </g>
    </g>
    <g id="xtick_2">
     <g id="line2d_2">
      <g>
       <use xlink:href="#m980be4552a" x="137.321908" y="279.653331" style="stroke: #000000; stroke-width: 0.8"/>
      </g>
     </g>
     <g id="text_2">
      <!-- −0.15 -->
      <g transform="translate(121.999252 294.251769) scale(0.1 -0.1)">
       <defs>
        <path id="DejaVuSans-31" d="M 794 531 
L 1825 531 
L 1825 4091 
L 703 3866 
L 703 4441 
L 1819 4666 
L 2450 4666 
L 2450 531 
L 3481 531 
L 3481 0 
L 794 0 
L 794 531 
z
" transform="scale(0.015625)"/>
        <path id="DejaVuSans-35" d="M 691 4666 
L 3169 4666 
L 3169 4134 
L 1269 4134 
L 1269 2991 
Q 1406 3038 1543 3061 
Q 1681 3084 1819 3084 
Q 2600 3084 3056 2656 
Q 3513 2228 3513 1497 
Q 3513 744 3044 326 
Q 2575 -91 1722 -91 
Q 1428 -91 1123 -41 
Q 819 9 494 109 
L 494 744 
Q 775 591 1075 516 
Q 1375 441 1709 441 
Q 2250 441 2565 725 
Q 2881 1009 2881 1497 
Q 2881 1984 2565 2268 
Q 2250 2553 1709 2553 
Q 1456 2553 1204 2497 
Q 953 2441 691 2322 
L 691 4666 
z
" transform="scale(0.015625)"/>
       </defs>
       <use xlink:href="#DejaVuSans-2212"/>
       <use xlink:href="#DejaVuSans-30" x="83.789062"/>
       <use xlink:href="#DejaVuSans-2e" x="147.412109"/>
       <use xlink:href="#DejaVuSans-31" x="179.199219"/>
       <use xlink:href="#DejaVuSans-35" x="242.822266"/>
      </g>
     </g>
    </g>
    <g id="xtick_3">
     <g id="line2d_3">
      <g>
       <use xlink:href="#m980be4552a" x="179.908634" y="279.653331" style="stroke: #000000; stroke-width: 0.8"/>
      </g>
     </g>
     <g id="text_3">
      <!-- −0.10 -->
      <g transform="translate(164.585977 294.251769) scale(0.1 -0.1)">
       <use xlink:href="#DejaVuSans-2212"/>
       <use xlink:href="#DejaVuSans-30" x="83.789062"/>
       <use xlink:href="#DejaVuSans-2e" x="147.412109"/>
       <use xlink:href="#DejaVuSans-31" x="179.199219"/>
       <use xlink:href="#DejaVuSans-30" x="242.822266"/>
      </g>
     </g>
    </g>
    <g id="xtick_4">
     <g id="line2d_4">
      <g>
       <use xlink:href="#m980be4552a" x="222.495359" y="279.653331" style="stroke: #000000; stroke-width: 0.8"/>
      </g>
     </g>
     <g id="text_4">
      <!-- −0.05 -->
      <g transform="translate(207.172703 294.251769) scale(0.1 -0.1)">
       <use xlink:href="#DejaVuSans-2212"/>
       <use xlink:href="#DejaVuSans-30" x="83.789062"/>
       <use xlink:href="#DejaVuSans-2e" x="147.412109"/>
       <use xlink:href="#DejaVuSans-30" x="179.199219"/>
       <use xlink:href="#DejaVuSans-35" x="242.822266"/>
      </g>
     </g>
    </g>
    <g id="xtick_5">
     <g id="line2d_5">
      <g>
       <use xlink:href="#m980be4552a" x="265.082085" y="279.653331" style="stroke: #000000; stroke-width: 0.8"/>
      </g>
     </g>
     <g id="text_5">
      <!-- 0.00 -->
      <g transform="translate(253.949272 294.251769) scale(0.1 -0.1)">
       <use xlink:href="#DejaVuSans-30"/>
       <use xlink:href="#DejaVuSans-2e" x="63.623047"/>
       <use xlink:href="#DejaVuSans-30" x="95.410156"/>
       <use xlink:href="#DejaVuSans-30" x="159.033203"/>
      </g>
     </g>
    </g>
    <g id="xtick_6">
     <g id="line2d_6">
      <g>
       <use xlink:href="#m980be4552a" x="307.66881" y="279.653331" style="stroke: #000000; stroke-width: 0.8"/>
      </g>
     </g>
     <g id="text_6">
      <!-- 0.05 -->
      <g transform="translate(296.535998 294.251769) scale(0.1 -0.1)">
       <use xlink:href="#DejaVuSans-30"/>
       <use xlink:href="#DejaVuSans-2e" x="63.623047"/>
       <use xlink:href="#DejaVuSans-30" x="95.410156"/>
       <use xlink:href="#DejaVuSans-35" x="159.033203"/>
      </g>
     </g>
    </g>
    <g id="xtick_7">
     <g id="line2d_7">
      <g>
       <use xlink:href="#m980be4552a" x="350.255536" y="279.653331" style="stroke: #000000; stroke-width: 0.8"/>
      </g>
     </g>
     <g id="text_7">
      <!-- 0.10 -->
      <g transform="translate(339.122724 294.251769) scale(0.1 -0.1)">
       <use xlink:href="#DejaVuSans-30"/>
       <use xlink:href="#DejaVuSans-2e" x="63.623047"/>
       <use xlink:href="#DejaVuSans-31" x="95.410156"/>
       <use xlink:href="#DejaVuSans-30" x="159.033203"/>
      </g>
     </g>
    </g>
    <g id="xtick_8">
     <g id="line2d_8">
      <g>
       <use xlink:href="#m980be4552a" x="392.842262" y="279.653331" style="stroke: #000000; stroke-width: 0.8"/>
      </g>
     </g>
     <g id="text_8">
      <!-- 0.15 -->
      <g transform="translate(381.709449 294.251769) scale(0.1 -0.1)">
       <use xlink:href="#DejaVuSans-30"/>
       <use xlink:href="#DejaVuSans-2e" x="63.623047"/>
       <use xlink:href="#DejaVuSans-31" x="95.410156"/>
       <use xlink:href="#DejaVuSans-35" x="159.033203"/>
      </g>
     </g>
    </g>
    <g id="text_9">
     <!--  Position in x -->
     <g transform="translate(204.411563 307.929894) scale(0.1 -0.1)">
      <defs>
       <path id="DejaVuSans-20" transform="scale(0.015625)"/>
       <path id="DejaVuSans-50" d="M 1259 4147 
L 1259 2394 
L 2053 2394 
Q 2494 2394 2734 2622 
Q 2975 2850 2975 3272 
Q 2975 3691 2734 3919 
Q 2494 4147 2053 4147 
L 1259 4147 
z
M 628 4666 
L 2053 4666 
Q 2838 4666 3239 4311 
Q 3641 3956 3641 3272 
Q 3641 2581 3239 2228 
Q 2838 1875 2053 1875 
L 1259 1875 
L 1259 0 
L 628 0 
L 628 4666 
z
" transform="scale(0.015625)"/>
       <path id="DejaVuSans-6f" d="M 1959 3097 
Q 1497 3097 1228 2736 
Q 959 2375 959 1747 
Q 959 1119 1226 758 
Q 1494 397 1959 397 
Q 2419 397 2687 759 
Q 2956 1122 2956 1747 
Q 2956 2369 2687 2733 
Q 2419 3097 1959 3097 
z
M 1959 3584 
Q 2709 3584 3137 3096 
Q 3566 2609 3566 1747 
Q 3566 888 3137 398 
Q 2709 -91 1959 -91 
Q 1206 -91 779 398 
Q 353 888 353 1747 
Q 353 2609 779 3096 
Q 1206 3584 1959 3584 
z
" transform="scale(0.015625)"/>
       <path id="DejaVuSans-73" d="M 2834 3397 
L 2834 2853 
Q 2591 2978 2328 3040 
Q 2066 3103 1784 3103 
Q 1356 3103 1142 2972 
Q 928 2841 928 2578 
Q 928 2378 1081 2264 
Q 1234 2150 1697 2047 
L 1894 2003 
Q 2506 1872 2764 1633 
Q 3022 1394 3022 966 
Q 3022 478 2636 193 
Q 2250 -91 1575 -91 
Q 1294 -91 989 -36 
Q 684 19 347 128 
L 347 722 
Q 666 556 975 473 
Q 1284 391 1588 391 
Q 1994 391 2212 530 
Q 2431 669 2431 922 
Q 2431 1156 2273 1281 
Q 2116 1406 1581 1522 
L 1381 1569 
Q 847 1681 609 1914 
Q 372 2147 372 2553 
Q 372 3047 722 3315 
Q 1072 3584 1716 3584 
Q 2034 3584 2315 3537 
Q 2597 3491 2834 3397 
z
" transform="scale(0.015625)"/>
       <path id="DejaVuSans-69" d="M 603 3500 
L 1178 3500 
L 1178 0 
L 603 0 
L 603 3500 
z
M 603 4863 
L 1178 4863 
L 1178 4134 
L 603 4134 
L 603 4863 
z
" transform="scale(0.015625)"/>
       <path id="DejaVuSans-74" d="M 1172 4494 
L 1172 3500 
L 2356 3500 
L 2356 3053 
L 1172 3053 
L 1172 1153 
Q 1172 725 1289 603 
Q 1406 481 1766 481 
L 2356 481 
L 2356 0 
L 1766 0 
Q 1100 0 847 248 
Q 594 497 594 1153 
L 594 3053 
L 172 3053 
L 172 3500 
L 594 3500 
L 594 4494 
L 1172 4494 
z
" transform="scale(0.015625)"/>
       <path id="DejaVuSans-6e" d="M 3513 2113 
L 3513 0 
L 2938 0 
L 2938 2094 
Q 2938 2591 2744 2837 
Q 2550 3084 2163 3084 
Q 1697 3084 1428 2787 
Q 1159 2491 1159 1978 
L 1159 0 
L 581 0 
L 581 3500 
L 1159 3500 
L 1159 2956 
Q 1366 3272 1645 3428 
Q 1925 3584 2291 3584 
Q 2894 3584 3203 3211 
Q 3513 2838 3513 2113 
z
" transform="scale(0.015625)"/>
       <path id="DejaVuSans-78" d="M 3513 3500 
L 2247 1797 
L 3578 0 
L 2900 0 
L 1881 1375 
L 863 0 
L 184 0 
L 1544 1831 
L 300 3500 
L 978 3500 
L 1906 2253 
L 2834 3500 
L 3513 3500 
z
" transform="scale(0.015625)"/>
      </defs>
      <use xlink:href="#DejaVuSans-20"/>
      <use xlink:href="#DejaVuSans-50" x="31.787109"/>
      <use xlink:href="#DejaVuSans-6f" x="88.464844"/>
      <use xlink:href="#DejaVuSans-73" x="149.646484"/>
      <use xlink:href="#DejaVuSans-69" x="201.746094"/>
      <use xlink:href="#DejaVuSans-74" x="229.529297"/>
      <use xlink:href="#DejaVuSans-69" x="268.738281"/>
      <use xlink:href="#DejaVuSans-6f" x="296.521484"/>
      <use xlink:href="#DejaVuSans-6e" x="357.703125"/>
      <use xlink:href="#DejaVuSans-20" x="421.082031"/>
      <use xlink:href="#DejaVuSans-69" x="452.869141"/>
      <use xlink:href="#DejaVuSans-6e" x="480.652344"/>
      <use xlink:href="#DejaVuSans-20" x="544.03125"/>
      <use xlink:href="#DejaVuSans-78" x="575.818359"/>
     </g>
    </g>
   </g>
   <g id="matplotlib.axis_2">
    <g id="ytick_1">
     <g id="line2d_9">
      <defs>
       <path id="m235d88208a" d="M 0 0 
L -3.5 0 
" style="stroke: #000000; stroke-width: 0.8"/>
      </defs>
      <g>
       <use xlink:href="#m235d88208a" x="57.6" y="253.968206" style="stroke: #000000; stroke-width: 0.8"/>
      </g>
     </g>
     <g id="text_10">
      <!-- −0.10 -->
      <g transform="translate(19.954687 257.767425) scale(0.1 -0.1)">
       <use xlink:href="#DejaVuSans-2212"/>
       <use xlink:href="#DejaVuSans-30" x="83.789062"/>
       <use xlink:href="#DejaVuSans-2e" x="147.412109"/>
       <use xlink:href="#DejaVuSans-31" x="179.199219"/>
       <use xlink:href="#DejaVuSans-30" x="242.822266"/>
      </g>
     </g>
    </g>
    <g id="ytick_2">
     <g id="line2d_10">
      <g>
       <use xlink:href="#m235d88208a" x="57.6" y="211.38148" style="stroke: #000000; stroke-width: 0.8"/>
      </g>
     </g>
     <g id="text_11">
      <!-- −0.05 -->
      <g transform="translate(19.954687 215.180699) scale(0.1 -0.1)">
       <use xlink:href="#DejaVuSans-2212"/>
       <use xlink:href="#DejaVuSans-30" x="83.789062"/>
       <use xlink:href="#DejaVuSans-2e" x="147.412109"/>
       <use xlink:href="#DejaVuSans-30" x="179.199219"/>
       <use xlink:href="#DejaVuSans-35" x="242.822266"/>
      </g>
     </g>
    </g>
    <g id="ytick_3">
     <g id="line2d_11">
      <g>
       <use xlink:href="#m235d88208a" x="57.6" y="168.794755" style="stroke: #000000; stroke-width: 0.8"/>
      </g>
     </g>
     <g id="text_12">
      <!-- 0.00 -->
      <g transform="translate(28.334375 172.593973) scale(0.1 -0.1)">
       <use xlink:href="#DejaVuSans-30"/>
       <use xlink:href="#DejaVuSans-2e" x="63.623047"/>
       <use xlink:href="#DejaVuSans-30" x="95.410156"/>
       <use xlink:href="#DejaVuSans-30" x="159.033203"/>
      </g>
     </g>
    </g>
    <g id="ytick_4">
     <g id="line2d_12">
      <g>
       <use xlink:href="#m235d88208a" x="57.6" y="126.208029" style="stroke: #000000; stroke-width: 0.8"/>
      </g>
     </g>
     <g id="text_13">
      <!-- 0.05 -->
      <g transform="translate(28.334375 130.007248) scale(0.1 -0.1)">
       <use xlink:href="#DejaVuSans-30"/>
       <use xlink:href="#DejaVuSans-2e" x="63.623047"/>
       <use xlink:href="#DejaVuSans-30" x="95.410156"/>
       <use xlink:href="#DejaVuSans-35" x="159.033203"/>
      </g>
     </g>
    </g>
    <g id="ytick_5">
     <g id="line2d_13">
      <g>
       <use xlink:href="#m235d88208a" x="57.6" y="83.621303" style="stroke: #000000; stroke-width: 0.8"/>
      </g>
     </g>
     <g id="text_14">
      <!-- 0.10 -->
      <g transform="translate(28.334375 87.420522) scale(0.1 -0.1)">
       <use xlink:href="#DejaVuSans-30"/>
       <use xlink:href="#DejaVuSans-2e" x="63.623047"/>
       <use xlink:href="#DejaVuSans-31" x="95.410156"/>
       <use xlink:href="#DejaVuSans-30" x="159.033203"/>
      </g>
     </g>
    </g>
    <g id="text_15">
     <!--  Position in y -->
     <g transform="translate(13.875 206.276437) rotate(-90) scale(0.1 -0.1)">
      <defs>
       <path id="DejaVuSans-79" d="M 2059 -325 
Q 1816 -950 1584 -1140 
Q 1353 -1331 966 -1331 
L 506 -1331 
L 506 -850 
L 844 -850 
Q 1081 -850 1212 -737 
Q 1344 -625 1503 -206 
L 1606 56 
L 191 3500 
L 800 3500 
L 1894 763 
L 2988 3500 
L 3597 3500 
L 2059 -325 
z
" transform="scale(0.015625)"/>
      </defs>
      <use xlink:href="#DejaVuSans-20"/>
      <use xlink:href="#DejaVuSans-50" x="31.787109"/>
      <use xlink:href="#DejaVuSans-6f" x="88.464844"/>
      <use xlink:href="#DejaVuSans-73" x="149.646484"/>
      <use xlink:href="#DejaVuSans-69" x="201.746094"/>
      <use xlink:href="#DejaVuSans-74" x="229.529297"/>
      <use xlink:href="#DejaVuSans-69" x="268.738281"/>
      <use xlink:href="#DejaVuSans-6f" x="296.521484"/>
      <use xlink:href="#DejaVuSans-6e" x="357.703125"/>
      <use xlink:href="#DejaVuSans-20" x="421.082031"/>
      <use xlink:href="#DejaVuSans-69" x="452.869141"/>
      <use xlink:href="#DejaVuSans-6e" x="480.652344"/>
      <use xlink:href="#DejaVuSans-20" x="544.03125"/>
      <use xlink:href="#DejaVuSans-79" x="575.818359"/>
     </g>
    </g>
   </g>
   <g id="line2d_14">
    <path d="M 73.832727 250.437092 
L 75.553403 248.903575 
L 77.274079 247.370058 
L 78.994755 245.836541 
L 80.71543 244.303024 
L 82.436106 242.769507 
L 84.156782 241.23599 
L 85.877458 239.702473 
L 87.598134 238.168956 
L 89.318809 236.635439 
L 91.039485 235.101922 
L 92.760161 233.568405 
L 94.480837 232.034888 
L 96.201512 230.501371 
L 97.922188 228.967854 
L 99.642864 227.434337 
L 101.36354 225.90082 
L 103.084216 224.367303 
L 104.804891 222.833786 
L 106.525567 221.300269 
L 108.246243 219.766752 
L 109.966919 218.233235 
L 111.687594 216.699718 
L 113.40827 215.166201 
L 115.128946 213.632684 
L 116.849622 212.099167 
L 118.570298 210.56565 
L 120.290973 209.032133 
L 122.011649 207.498616 
L 123.732325 205.965099 
L 125.453001 204.431582 
L 127.173677 202.898065 
L 128.894352 201.364548 
L 130.615028 199.831031 
L 132.335704 198.297514 
L 134.05638 196.763997 
L 135.777055 195.23048 
L 137.497731 193.696963 
L 139.218407 192.163446 
L 140.939083 190.629929 
L 142.659759 189.096412 
L 144.380434 187.562895 
L 146.10111 186.029378 
L 147.821786 184.495861 
L 149.542462 182.962344 
L 151.263138 181.428827 
L 152.983813 179.89531 
L 154.704489 178.361793 
L 156.425165 176.828276 
L 158.145841 175.294759 
L 159.866516 173.761241 
L 161.587192 172.227724 
L 163.307868 170.694207 
L 165.028544 169.16069 
L 166.74922 167.627173 
L 168.469895 166.093656 
L 170.190571 164.560139 
L 171.911247 163.026622 
L 173.631923 161.493105 
L 175.352598 159.959588 
L 177.073274 158.426071 
L 178.79395 156.892554 
L 180.514626 155.359037 
L 182.235302 153.82552 
L 183.955977 152.292003 
L 185.676653 150.758486 
L 187.397329 149.224969 
L 189.118005 147.691452 
L 190.838681 146.157935 
L 192.559356 144.624418 
L 194.280032 143.090901 
L 196.000708 141.557384 
L 197.721384 140.023867 
L 199.442059 138.49035 
L 201.162735 136.956833 
L 202.883411 135.423316 
L 204.604087 133.889799 
L 206.324763 132.356282 
L 208.045438 130.822765 
L 209.766114 129.289248 
L 211.48679 127.755731 
L 213.207466 126.222214 
L 214.928141 124.688697 
L 216.648817 123.15518 
L 218.369493 121.621663 
L 220.090169 120.088146 
L 221.810845 118.554629 
L 223.53152 117.021112 
L 225.252196 115.487595 
L 226.972872 113.954078 
L 228.693548 112.420561 
L 230.414224 110.887044 
L 232.134899 109.353527 
L 233.855575 107.82001 
L 235.576251 106.286493 
L 237.296927 104.752976 
L 239.017602 103.219459 
L 240.738278 101.685942 
L 242.458954 100.152425 
L 244.17963 98.618908 
" clip-path="url(#p14c4a5ea66)" style="fill: none; stroke: #0000ff; stroke-width: 1.5; stroke-linecap: square"/>
   </g>
   <g id="line2d_15">
    <path d="M 73.832727 78.959517 
L 75.553403 80.890194 
L 77.274079 82.82087 
L 78.994755 84.751546 
L 80.71543 86.682223 
L 82.436106 88.612899 
L 84.156782 90.543576 
L 85.877458 92.474252 
L 87.598134 94.404929 
L 89.318809 96.335605 
L 91.039485 98.266281 
L 92.760161 100.196958 
L 94.480837 102.127634 
L 96.201512 104.058311 
L 97.922188 105.988987 
L 99.642864 107.919663 
L 101.36354 109.85034 
L 103.084216 111.781016 
L 104.804891 113.711693 
L 106.525567 115.642369 
L 108.246243 117.573046 
L 109.966919 119.503722 
L 111.687594 121.434398 
L 113.40827 123.365075 
L 115.128946 125.295751 
L 116.849622 127.226428 
L 118.570298 129.157104 
L 120.290973 131.087781 
L 122.011649 133.018457 
L 123.732325 134.949133 
L 125.453001 136.87981 
L 127.173677 138.810486 
L 128.894352 140.741163 
L 130.615028 142.671839 
L 132.335704 144.602515 
L 134.05638 146.533192 
L 135.777055 148.463868 
L 137.497731 150.394545 
L 139.218407 152.325221 
L 140.939083 154.255898 
L 142.659759 156.186574 
L 144.380434 158.11725 
L 146.10111 160.047927 
L 147.821786 161.978603 
L 149.542462 163.90928 
L 151.263138 165.839956 
L 152.983813 167.770633 
L 154.704489 169.701309 
L 156.425165 171.631985 
L 158.145841 173.562662 
L 159.866516 175.493338 
L 161.587192 177.424015 
L 163.307868 179.354691 
L 165.028544 181.285367 
L 166.74922 183.216044 
L 168.469895 185.14672 
L 170.190571 187.077397 
L 171.911247 189.008073 
L 173.631923 190.93875 
L 175.352598 192.869426 
L 177.073274 194.800102 
L 178.79395 196.730779 
L 180.514626 198.661455 
L 182.235302 200.592132 
L 183.955977 202.522808 
L 185.676653 204.453485 
L 187.397329 206.384161 
L 189.118005 208.314837 
L 190.838681 210.245514 
L 192.559356 212.17619 
L 194.280032 214.106867 
L 196.000708 216.037543 
L 197.721384 217.968219 
L 199.442059 219.898896 
L 201.162735 221.829572 
L 202.883411 223.760249 
L 204.604087 225.690925 
L 206.324763 227.621602 
L 208.045438 229.552278 
L 209.766114 231.482954 
L 211.48679 233.413631 
L 213.207466 235.344307 
L 214.928141 237.274984 
L 216.648817 239.20566 
L 218.369493 241.136337 
L 220.090169 243.067013 
L 221.810845 244.997689 
L 223.53152 246.928366 
L 225.252196 248.859042 
L 226.972872 250.789719 
L 228.693548 252.720395 
L 230.414224 254.651071 
L 232.134899 256.581748 
L 233.855575 258.512424 
L 235.576251 260.443101 
L 237.296927 262.373777 
L 239.017602 264.304454 
L 240.738278 266.23513 
L 242.458954 268.165806 
L 244.17963 270.096483 
" clip-path="url(#p14c4a5ea66)" style="fill: none; stroke: #ffa500; stroke-width: 1.5; stroke-linecap: square"/>
   </g>
   <g id="patch_4">
    <path d="M 57.6 279.653331 
L 57.6 69.402669 
" style="fill: none; stroke: #000000; stroke-width: 0.8; stroke-linejoin: miter; stroke-linecap: square"/>
   </g>
   <g id="patch_5">
    <path d="M 414.72 279.653331 
L 414.72 69.402669 
" style="fill: none; stroke: #000000; stroke-width: 0.8; stroke-linejoin: miter; stroke-linecap: square"/>
   </g>
   <g id="patch_6">
    <path d="M 57.6 279.653331 
L 414.72 279.653331 
" style="fill: none; stroke: #000000; stroke-width: 0.8; stroke-linejoin: miter; stroke-linecap: square"/>
   </g>
   <g id="patch_7">
    <path d="M 57.6 69.402669 
L 414.72 69.402669 
" style="fill: none; stroke: #000000; stroke-width: 0.8; stroke-linejoin: miter; stroke-linecap: square"/>
   </g>
   <g id="legend_1">
    <g id="patch_8">
     <path d="M 297.5825 121.437044 
L 407.72 121.437044 
Q 409.72 121.437044 409.72 119.437044 
L 409.72 76.402669 
Q 409.72 74.402669 407.72 74.402669 
L 297.5825 74.402669 
Q 295.5825 74.402669 295.5825 76.402669 
L 295.5825 119.437044 
Q 295.5825 121.437044 297.5825 121.437044 
z
" style="fill: #ffffff; opacity: 0.8; stroke: #cccccc; stroke-linejoin: miter"/>
    </g>
    <g id="PathCollection_2">
     <g>
      <use xlink:href="#mfa6e9a3b43" x="309.5825" y="83.376106" style="fill: #0000ff; stroke: #0000ff"/>
     </g>
    </g>
    <g id="text_16">
     <!-- intersection -->
     <g transform="translate(327.5825 86.001106) scale(0.1 -0.1)">
      <defs>
       <path id="DejaVuSans-65" d="M 3597 1894 
L 3597 1613 
L 953 1613 
Q 991 1019 1311 708 
Q 1631 397 2203 397 
Q 2534 397 2845 478 
Q 3156 559 3463 722 
L 3463 178 
Q 3153 47 2828 -22 
Q 2503 -91 2169 -91 
Q 1331 -91 842 396 
Q 353 884 353 1716 
Q 353 2575 817 3079 
Q 1281 3584 2069 3584 
Q 2775 3584 3186 3129 
Q 3597 2675 3597 1894 
z
M 3022 2063 
Q 3016 2534 2758 2815 
Q 2500 3097 2075 3097 
Q 1594 3097 1305 2825 
Q 1016 2553 972 2059 
L 3022 2063 
z
" transform="scale(0.015625)"/>
       <path id="DejaVuSans-72" d="M 2631 2963 
Q 2534 3019 2420 3045 
Q 2306 3072 2169 3072 
Q 1681 3072 1420 2755 
Q 1159 2438 1159 1844 
L 1159 0 
L 581 0 
L 581 3500 
L 1159 3500 
L 1159 2956 
Q 1341 3275 1631 3429 
Q 1922 3584 2338 3584 
Q 2397 3584 2469 3576 
Q 2541 3569 2628 3553 
L 2631 2963 
z
" transform="scale(0.015625)"/>
       <path id="DejaVuSans-63" d="M 3122 3366 
L 3122 2828 
Q 2878 2963 2633 3030 
Q 2388 3097 2138 3097 
Q 1578 3097 1268 2742 
Q 959 2388 959 1747 
Q 959 1106 1268 751 
Q 1578 397 2138 397 
Q 2388 397 2633 464 
Q 2878 531 3122 666 
L 3122 134 
Q 2881 22 2623 -34 
Q 2366 -91 2075 -91 
Q 1284 -91 818 406 
Q 353 903 353 1747 
Q 353 2603 823 3093 
Q 1294 3584 2113 3584 
Q 2378 3584 2631 3529 
Q 2884 3475 3122 3366 
z
" transform="scale(0.015625)"/>
      </defs>
      <use xlink:href="#DejaVuSans-69"/>
      <use xlink:href="#DejaVuSans-6e" x="27.783203"/>
      <use xlink:href="#DejaVuSans-74" x="91.162109"/>
      <use xlink:href="#DejaVuSans-65" x="130.371094"/>
      <use xlink:href="#DejaVuSans-72" x="191.894531"/>
      <use xlink:href="#DejaVuSans-73" x="233.007812"/>
      <use xlink:href="#DejaVuSans-65" x="285.107422"/>
      <use xlink:href="#DejaVuSans-63" x="346.630859"/>
      <use xlink:href="#DejaVuSans-74" x="401.611328"/>
      <use xlink:href="#DejaVuSans-69" x="440.820312"/>
      <use xlink:href="#DejaVuSans-6f" x="468.603516"/>
      <use xlink:href="#DejaVuSans-6e" x="529.785156"/>
     </g>
    </g>
    <g id="line2d_16">
     <path d="M 299.5825 97.179231 
L 309.5825 97.179231 
L 319.5825 97.179231 
" style="fill: none; stroke: #0000ff; stroke-width: 1.5; stroke-linecap: square"/>
    </g>
    <g id="text_17">
     <!-- tagente -->
     <g transform="translate(327.5825 100.679231) scale(0.1 -0.1)">
      <defs>
       <path id="DejaVuSans-61" d="M 2194 1759 
Q 1497 1759 1228 1600 
Q 959 1441 959 1056 
Q 959 750 1161 570 
Q 1363 391 1709 391 
Q 2188 391 2477 730 
Q 2766 1069 2766 1631 
L 2766 1759 
L 2194 1759 
z
M 3341 1997 
L 3341 0 
L 2766 0 
L 2766 531 
Q 2569 213 2275 61 
Q 1981 -91 1556 -91 
Q 1019 -91 701 211 
Q 384 513 384 1019 
Q 384 1609 779 1909 
Q 1175 2209 1959 2209 
L 2766 2209 
L 2766 2266 
Q 2766 2663 2505 2880 
Q 2244 3097 1772 3097 
Q 1472 3097 1187 3025 
Q 903 2953 641 2809 
L 641 3341 
Q 956 3463 1253 3523 
Q 1550 3584 1831 3584 
Q 2591 3584 2966 3190 
Q 3341 2797 3341 1997 
z
" transform="scale(0.015625)"/>
       <path id="DejaVuSans-67" d="M 2906 1791 
Q 2906 2416 2648 2759 
Q 2391 3103 1925 3103 
Q 1463 3103 1205 2759 
Q 947 2416 947 1791 
Q 947 1169 1205 825 
Q 1463 481 1925 481 
Q 2391 481 2648 825 
Q 2906 1169 2906 1791 
z
M 3481 434 
Q 3481 -459 3084 -895 
Q 2688 -1331 1869 -1331 
Q 1566 -1331 1297 -1286 
Q 1028 -1241 775 -1147 
L 775 -588 
Q 1028 -725 1275 -790 
Q 1522 -856 1778 -856 
Q 2344 -856 2625 -561 
Q 2906 -266 2906 331 
L 2906 616 
Q 2728 306 2450 153 
Q 2172 0 1784 0 
Q 1141 0 747 490 
Q 353 981 353 1791 
Q 353 2603 747 3093 
Q 1141 3584 1784 3584 
Q 2172 3584 2450 3431 
Q 2728 3278 2906 2969 
L 2906 3500 
L 3481 3500 
L 3481 434 
z
" transform="scale(0.015625)"/>
      </defs>
      <use xlink:href="#DejaVuSans-74"/>
      <use xlink:href="#DejaVuSans-61" x="39.208984"/>
      <use xlink:href="#DejaVuSans-67" x="100.488281"/>
      <use xlink:href="#DejaVuSans-65" x="163.964844"/>
      <use xlink:href="#DejaVuSans-6e" x="225.488281"/>
      <use xlink:href="#DejaVuSans-74" x="288.867188"/>
      <use xlink:href="#DejaVuSans-65" x="328.076172"/>
     </g>
    </g>
    <g id="line2d_17">
     <path d="M 299.5825 111.857356 
L 309.5825 111.857356 
L 319.5825 111.857356 
" style="fill: none; stroke: #ffa500; stroke-width: 1.5; stroke-linecap: square"/>
    </g>
    <g id="text_18">
     <!-- perpendiculaire -->
     <g transform="translate(327.5825 115.357356) scale(0.1 -0.1)">
      <defs>
       <path id="DejaVuSans-70" d="M 1159 525 
L 1159 -1331 
L 581 -1331 
L 581 3500 
L 1159 3500 
L 1159 2969 
Q 1341 3281 1617 3432 
Q 1894 3584 2278 3584 
Q 2916 3584 3314 3078 
Q 3713 2572 3713 1747 
Q 3713 922 3314 415 
Q 2916 -91 2278 -91 
Q 1894 -91 1617 61 
Q 1341 213 1159 525 
z
M 3116 1747 
Q 3116 2381 2855 2742 
Q 2594 3103 2138 3103 
Q 1681 3103 1420 2742 
Q 1159 2381 1159 1747 
Q 1159 1113 1420 752 
Q 1681 391 2138 391 
Q 2594 391 2855 752 
Q 3116 1113 3116 1747 
z
" transform="scale(0.015625)"/>
       <path id="DejaVuSans-64" d="M 2906 2969 
L 2906 4863 
L 3481 4863 
L 3481 0 
L 2906 0 
L 2906 525 
Q 2725 213 2448 61 
Q 2172 -91 1784 -91 
Q 1150 -91 751 415 
Q 353 922 353 1747 
Q 353 2572 751 3078 
Q 1150 3584 1784 3584 
Q 2172 3584 2448 3432 
Q 2725 3281 2906 2969 
z
M 947 1747 
Q 947 1113 1208 752 
Q 1469 391 1925 391 
Q 2381 391 2643 752 
Q 2906 1113 2906 1747 
Q 2906 2381 2643 2742 
Q 2381 3103 1925 3103 
Q 1469 3103 1208 2742 
Q 947 2381 947 1747 
z
" transform="scale(0.015625)"/>
       <path id="DejaVuSans-75" d="M 544 1381 
L 544 3500 
L 1119 3500 
L 1119 1403 
Q 1119 906 1312 657 
Q 1506 409 1894 409 
Q 2359 409 2629 706 
Q 2900 1003 2900 1516 
L 2900 3500 
L 3475 3500 
L 3475 0 
L 2900 0 
L 2900 538 
Q 2691 219 2414 64 
Q 2138 -91 1772 -91 
Q 1169 -91 856 284 
Q 544 659 544 1381 
z
M 1991 3584 
L 1991 3584 
z
" transform="scale(0.015625)"/>
       <path id="DejaVuSans-6c" d="M 603 4863 
L 1178 4863 
L 1178 0 
L 603 0 
L 603 4863 
z
" transform="scale(0.015625)"/>
      </defs>
      <use xlink:href="#DejaVuSans-70"/>
      <use xlink:href="#DejaVuSans-65" x="63.476562"/>
      <use xlink:href="#DejaVuSans-72" x="125"/>
      <use xlink:href="#DejaVuSans-70" x="166.113281"/>
      <use xlink:href="#DejaVuSans-65" x="229.589844"/>
      <use xlink:href="#DejaVuSans-6e" x="291.113281"/>
      <use xlink:href="#DejaVuSans-64" x="354.492188"/>
      <use xlink:href="#DejaVuSans-69" x="417.96875"/>
      <use xlink:href="#DejaVuSans-63" x="445.751953"/>
      <use xlink:href="#DejaVuSans-75" x="500.732422"/>
      <use xlink:href="#DejaVuSans-6c" x="564.111328"/>
      <use xlink:href="#DejaVuSans-61" x="591.894531"/>
      <use xlink:href="#DejaVuSans-69" x="653.173828"/>
      <use xlink:href="#DejaVuSans-72" x="680.957031"/>
      <use xlink:href="#DejaVuSans-65" x="719.820312"/>
     </g>
    </g>
   </g>
  </g>
  <g id="text_19">
   <!-- Representation insole, tangente and perpendiculaire -->
   <g transform="translate(72.325313 16.030125) scale(0.12 -0.12)">
    <defs>
     <path id="DejaVuSans-52" d="M 2841 2188 
Q 3044 2119 3236 1894 
Q 3428 1669 3622 1275 
L 4263 0 
L 3584 0 
L 2988 1197 
Q 2756 1666 2539 1819 
Q 2322 1972 1947 1972 
L 1259 1972 
L 1259 0 
L 628 0 
L 628 4666 
L 2053 4666 
Q 2853 4666 3247 4331 
Q 3641 3997 3641 3322 
Q 3641 2881 3436 2590 
Q 3231 2300 2841 2188 
z
M 1259 4147 
L 1259 2491 
L 2053 2491 
Q 2509 2491 2742 2702 
Q 2975 2913 2975 3322 
Q 2975 3731 2742 3939 
Q 2509 4147 2053 4147 
L 1259 4147 
z
" transform="scale(0.015625)"/>
     <path id="DejaVuSans-2c" d="M 750 794 
L 1409 794 
L 1409 256 
L 897 -744 
L 494 -744 
L 750 256 
L 750 794 
z
" transform="scale(0.015625)"/>
    </defs>
    <use xlink:href="#DejaVuSans-52"/>
    <use xlink:href="#DejaVuSans-65" x="64.982422"/>
    <use xlink:href="#DejaVuSans-70" x="126.505859"/>
    <use xlink:href="#DejaVuSans-72" x="189.982422"/>
    <use xlink:href="#DejaVuSans-65" x="228.845703"/>
    <use xlink:href="#DejaVuSans-73" x="290.369141"/>
    <use xlink:href="#DejaVuSans-65" x="342.46875"/>
    <use xlink:href="#DejaVuSans-6e" x="403.992188"/>
    <use xlink:href="#DejaVuSans-74" x="467.371094"/>
    <use xlink:href="#DejaVuSans-61" x="506.580078"/>
    <use xlink:href="#DejaVuSans-74" x="567.859375"/>
    <use xlink:href="#DejaVuSans-69" x="607.068359"/>
    <use xlink:href="#DejaVuSans-6f" x="634.851562"/>
    <use xlink:href="#DejaVuSans-6e" x="696.033203"/>
    <use xlink:href="#DejaVuSans-20" x="759.412109"/>
    <use xlink:href="#DejaVuSans-69" x="791.199219"/>
    <use xlink:href="#DejaVuSans-6e" x="818.982422"/>
    <use xlink:href="#DejaVuSans-73" x="882.361328"/>
    <use xlink:href="#DejaVuSans-6f" x="934.460938"/>
    <use xlink:href="#DejaVuSans-6c" x="995.642578"/>
    <use xlink:href="#DejaVuSans-65" x="1023.425781"/>
    <use xlink:href="#DejaVuSans-2c" x="1084.949219"/>
    <use xlink:href="#DejaVuSans-20" x="1116.736328"/>
    <use xlink:href="#DejaVuSans-74" x="1148.523438"/>
    <use xlink:href="#DejaVuSans-61" x="1187.732422"/>
    <use xlink:href="#DejaVuSans-6e" x="1249.011719"/>
    <use xlink:href="#DejaVuSans-67" x="1312.390625"/>
    <use xlink:href="#DejaVuSans-65" x="1375.867188"/>
    <use xlink:href="#DejaVuSans-6e" x="1437.390625"/>
    <use xlink:href="#DejaVuSans-74" x="1500.769531"/>
    <use xlink:href="#DejaVuSans-65" x="1539.978516"/>
    <use xlink:href="#DejaVuSans-20" x="1601.501953"/>
    <use xlink:href="#DejaVuSans-61" x="1633.289062"/>
    <use xlink:href="#DejaVuSans-6e" x="1694.568359"/>
    <use xlink:href="#DejaVuSans-64" x="1757.947266"/>
    <use xlink:href="#DejaVuSans-20" x="1821.423828"/>
    <use xlink:href="#DejaVuSans-70" x="1853.210938"/>
    <use xlink:href="#DejaVuSans-65" x="1916.6875"/>
    <use xlink:href="#DejaVuSans-72" x="1978.210938"/>
    <use xlink:href="#DejaVuSans-70" x="2019.324219"/>
    <use xlink:href="#DejaVuSans-65" x="2082.800781"/>
    <use xlink:href="#DejaVuSans-6e" x="2144.324219"/>
    <use xlink:href="#DejaVuSans-64" x="2207.703125"/>
    <use xlink:href="#DejaVuSans-69" x="2271.179688"/>
    <use xlink:href="#DejaVuSans-63" x="2298.962891"/>
    <use xlink:href="#DejaVuSans-75" x="2353.943359"/>
    <use xlink:href="#DejaVuSans-6c" x="2417.322266"/>
    <use xlink:href="#DejaVuSans-61" x="2445.105469"/>
    <use xlink:href="#DejaVuSans-69" x="2506.384766"/>
    <use xlink:href="#DejaVuSans-72" x="2534.167969"/>
    <use xlink:href="#DejaVuSans-65" x="2573.03125"/>
   </g>
  </g>
 </g>
 <defs>
  <clipPath id="p14c4a5ea66">
   <rect x="57.6" y="69.402669" width="357.12" height="210.250662"/>
  </clipPath>
 </defs>
</svg>
