<?xml version="1.0" encoding="utf-8" standalone="no"?>
<!DOCTYPE svg PUBLIC "-//W3C//DTD SVG 1.1//EN"
  "http://www.w3.org/Graphics/SVG/1.1/DTD/svg11.dtd">
<svg xmlns:xlink="http://www.w3.org/1999/xlink" width="460.8pt" height="345.6pt" viewBox="0 0 460.8 345.6" xmlns="http://www.w3.org/2000/svg" version="1.1">
 <metadata>
  <rdf:RDF xmlns:dc="http://purl.org/dc/elements/1.1/" xmlns:cc="http://creativecommons.org/ns#" xmlns:rdf="http://www.w3.org/1999/02/22-rdf-syntax-ns#">
   <cc:Work>
    <dc:type rdf:resource="http://purl.org/dc/dcmitype/StillImage"/>
    <dc:date>2023-07-04T10:58:36.610059</dc:date>
    <dc:format>image/svg+xml</dc:format>
    <dc:creator>
     <cc:Agent>
      <dc:title>Matplotlib v3.6.2, https://matplotlib.org/</dc:title>
     </cc:Agent>
    </dc:creator>
   </cc:Work>
  </rdf:RDF>
 </metadata>
 <defs>
  <style type="text/css">*{stroke-linejoin: round; stroke-linecap: butt}</style>
 </defs>
 <g id="figure_1">
  <g id="patch_1">
   <path d="M 0 345.6 
L 460.8 345.6 
L 460.8 0 
L 0 0 
z
" style="fill: #ffffff"/>
  </g>
  <g id="axes_1">
   <g id="patch_2">
    <path d="M 57.6 278.720656 
L 414.72 278.720656 
L 414.72 70.335344 
L 57.6 70.335344 
z
" style="fill: #ffffff"/>
   </g>
   <g id="patch_3">
    <path d="M 317.143739 221.831785 
C 324.080244 200.32284 317.91519 175.558096 300.006359 152.9917 
C 282.097528 130.425305 253.907095 111.899704 221.643678 101.494947 
C 189.380261 91.090189 155.678023 89.655778 127.959492 97.507624 
C 100.240961 105.359471 80.769232 121.856507 73.832727 143.365453 
C 66.896222 164.874398 73.061276 189.639142 90.970108 212.205537 
C 108.878939 234.771933 137.069371 253.297534 169.332789 263.702291 
C 201.596206 274.107048 235.298443 275.54146 263.016974 267.689614 
C 290.735505 259.837767 310.207234 243.340731 317.143739 221.831785 
z
" clip-path="url(#p4de53b4ab0)" style="fill: #ff0000; opacity: 0.5"/>
   </g>
   <g id="PathCollection_1">
    <defs>
     <path id="m9a10bf611a" d="M 0 3 
C 0.795609 3 1.55874 2.683901 2.12132 2.12132 
C 2.683901 1.55874 3 0.795609 3 0 
C 3 -0.795609 2.683901 -1.55874 2.12132 -2.12132 
C 1.55874 -2.683901 0.795609 -3 0 -3 
C -0.795609 -3 -1.55874 -2.683901 -2.12132 -2.12132 
C -2.683901 -1.55874 -3 -0.795609 -3 0 
C -3 0.795609 -2.683901 1.55874 -2.12132 2.12132 
C -1.55874 2.683901 -0.795609 3 0 3 
z
" style="stroke: #0000ff"/>
    </defs>
    <g clip-path="url(#p4de53b4ab0)">
     <use xlink:href="#m9a10bf611a" x="313.270419" y="174.528" style="fill: #0000ff; stroke: #0000ff"/>
    </g>
   </g>
   <g id="matplotlib.axis_1">
    <g id="xtick_1">
     <g id="line2d_1">
      <defs>
       <path id="m18dd027c5d" d="M 0 0 
L 0 3.5 
" style="stroke: #000000; stroke-width: 0.8"/>
      </defs>
      <g>
       <use xlink:href="#m18dd027c5d" x="98.453716" y="278.720656" style="stroke: #000000; stroke-width: 0.8"/>
      </g>
     </g>
     <g id="text_1">
      <!-- −0.10 -->
      <g transform="translate(83.13106 293.319094) scale(0.1 -0.1)">
       <defs>
        <path id="DejaVuSans-2212" d="M 678 2272 
L 4684 2272 
L 4684 1741 
L 678 1741 
L 678 2272 
z
" transform="scale(0.015625)"/>
        <path id="DejaVuSans-30" d="M 2034 4250 
Q 1547 4250 1301 3770 
Q 1056 3291 1056 2328 
Q 1056 1369 1301 889 
Q 1547 409 2034 409 
Q 2525 409 2770 889 
Q 3016 1369 3016 2328 
Q 3016 3291 2770 3770 
Q 2525 4250 2034 4250 
z
M 2034 4750 
Q 2819 4750 3233 4129 
Q 3647 3509 3647 2328 
Q 3647 1150 3233 529 
Q 2819 -91 2034 -91 
Q 1250 -91 836 529 
Q 422 1150 422 2328 
Q 422 3509 836 4129 
Q 1250 4750 2034 4750 
z
" transform="scale(0.015625)"/>
        <path id="DejaVuSans-2e" d="M 684 794 
L 1344 794 
L 1344 0 
L 684 0 
L 684 794 
z
" transform="scale(0.015625)"/>
        <path id="DejaVuSans-31" d="M 794 531 
L 1825 531 
L 1825 4091 
L 703 3866 
L 703 4441 
L 1819 4666 
L 2450 4666 
L 2450 531 
L 3481 531 
L 3481 0 
L 794 0 
L 794 531 
z
" transform="scale(0.015625)"/>
       </defs>
       <use xlink:href="#DejaVuSans-2212"/>
       <use xlink:href="#DejaVuSans-30" x="83.789062"/>
       <use xlink:href="#DejaVuSans-2e" x="147.412109"/>
       <use xlink:href="#DejaVuSans-31" x="179.199219"/>
       <use xlink:href="#DejaVuSans-30" x="242.822266"/>
      </g>
     </g>
    </g>
    <g id="xtick_2">
     <g id="line2d_2">
      <g>
       <use xlink:href="#m18dd027c5d" x="141.062143" y="278.720656" style="stroke: #000000; stroke-width: 0.8"/>
      </g>
     </g>
     <g id="text_2">
      <!-- −0.05 -->
      <g transform="translate(125.739487 293.319094) scale(0.1 -0.1)">
       <defs>
        <path id="DejaVuSans-35" d="M 691 4666 
L 3169 4666 
L 3169 4134 
L 1269 4134 
L 1269 2991 
Q 1406 3038 1543 3061 
Q 1681 3084 1819 3084 
Q 2600 3084 3056 2656 
Q 3513 2228 3513 1497 
Q 3513 744 3044 326 
Q 2575 -91 1722 -91 
Q 1428 -91 1123 -41 
Q 819 9 494 109 
L 494 744 
Q 775 591 1075 516 
Q 1375 441 1709 441 
Q 2250 441 2565 725 
Q 2881 1009 2881 1497 
Q 2881 1984 2565 2268 
Q 2250 2553 1709 2553 
Q 1456 2553 1204 2497 
Q 953 2441 691 2322 
L 691 4666 
z
" transform="scale(0.015625)"/>
       </defs>
       <use xlink:href="#DejaVuSans-2212"/>
       <use xlink:href="#DejaVuSans-30" x="83.789062"/>
       <use xlink:href="#DejaVuSans-2e" x="147.412109"/>
       <use xlink:href="#DejaVuSans-30" x="179.199219"/>
       <use xlink:href="#DejaVuSans-35" x="242.822266"/>
      </g>
     </g>
    </g>
    <g id="xtick_3">
     <g id="line2d_3">
      <g>
       <use xlink:href="#m18dd027c5d" x="183.67057" y="278.720656" style="stroke: #000000; stroke-width: 0.8"/>
      </g>
     </g>
     <g id="text_3">
      <!-- 0.00 -->
      <g transform="translate(172.537758 293.319094) scale(0.1 -0.1)">
       <use xlink:href="#DejaVuSans-30"/>
       <use xlink:href="#DejaVuSans-2e" x="63.623047"/>
       <use xlink:href="#DejaVuSans-30" x="95.410156"/>
       <use xlink:href="#DejaVuSans-30" x="159.033203"/>
      </g>
     </g>
    </g>
    <g id="xtick_4">
     <g id="line2d_4">
      <g>
       <use xlink:href="#m18dd027c5d" x="226.278998" y="278.720656" style="stroke: #000000; stroke-width: 0.8"/>
      </g>
     </g>
     <g id="text_4">
      <!-- 0.05 -->
      <g transform="translate(215.146185 293.319094) scale(0.1 -0.1)">
       <use xlink:href="#DejaVuSans-30"/>
       <use xlink:href="#DejaVuSans-2e" x="63.623047"/>
       <use xlink:href="#DejaVuSans-30" x="95.410156"/>
       <use xlink:href="#DejaVuSans-35" x="159.033203"/>
      </g>
     </g>
    </g>
    <g id="xtick_5">
     <g id="line2d_5">
      <g>
       <use xlink:href="#m18dd027c5d" x="268.887425" y="278.720656" style="stroke: #000000; stroke-width: 0.8"/>
      </g>
     </g>
     <g id="text_5">
      <!-- 0.10 -->
      <g transform="translate(257.754612 293.319094) scale(0.1 -0.1)">
       <use xlink:href="#DejaVuSans-30"/>
       <use xlink:href="#DejaVuSans-2e" x="63.623047"/>
       <use xlink:href="#DejaVuSans-31" x="95.410156"/>
       <use xlink:href="#DejaVuSans-30" x="159.033203"/>
      </g>
     </g>
    </g>
    <g id="xtick_6">
     <g id="line2d_6">
      <g>
       <use xlink:href="#m18dd027c5d" x="311.495852" y="278.720656" style="stroke: #000000; stroke-width: 0.8"/>
      </g>
     </g>
     <g id="text_6">
      <!-- 0.15 -->
      <g transform="translate(300.363039 293.319094) scale(0.1 -0.1)">
       <use xlink:href="#DejaVuSans-30"/>
       <use xlink:href="#DejaVuSans-2e" x="63.623047"/>
       <use xlink:href="#DejaVuSans-31" x="95.410156"/>
       <use xlink:href="#DejaVuSans-35" x="159.033203"/>
      </g>
     </g>
    </g>
    <g id="xtick_7">
     <g id="line2d_7">
      <g>
       <use xlink:href="#m18dd027c5d" x="354.104279" y="278.720656" style="stroke: #000000; stroke-width: 0.8"/>
      </g>
     </g>
     <g id="text_7">
      <!-- 0.20 -->
      <g transform="translate(342.971466 293.319094) scale(0.1 -0.1)">
       <defs>
        <path id="DejaVuSans-32" d="M 1228 531 
L 3431 531 
L 3431 0 
L 469 0 
L 469 531 
Q 828 903 1448 1529 
Q 2069 2156 2228 2338 
Q 2531 2678 2651 2914 
Q 2772 3150 2772 3378 
Q 2772 3750 2511 3984 
Q 2250 4219 1831 4219 
Q 1534 4219 1204 4116 
Q 875 4013 500 3803 
L 500 4441 
Q 881 4594 1212 4672 
Q 1544 4750 1819 4750 
Q 2544 4750 2975 4387 
Q 3406 4025 3406 3419 
Q 3406 3131 3298 2873 
Q 3191 2616 2906 2266 
Q 2828 2175 2409 1742 
Q 1991 1309 1228 531 
z
" transform="scale(0.015625)"/>
       </defs>
       <use xlink:href="#DejaVuSans-30"/>
       <use xlink:href="#DejaVuSans-2e" x="63.623047"/>
       <use xlink:href="#DejaVuSans-32" x="95.410156"/>
       <use xlink:href="#DejaVuSans-30" x="159.033203"/>
      </g>
     </g>
    </g>
    <g id="xtick_8">
     <g id="line2d_8">
      <g>
       <use xlink:href="#m18dd027c5d" x="396.712706" y="278.720656" style="stroke: #000000; stroke-width: 0.8"/>
      </g>
     </g>
     <g id="text_8">
      <!-- 0.25 -->
      <g transform="translate(385.579893 293.319094) scale(0.1 -0.1)">
       <use xlink:href="#DejaVuSans-30"/>
       <use xlink:href="#DejaVuSans-2e" x="63.623047"/>
       <use xlink:href="#DejaVuSans-32" x="95.410156"/>
       <use xlink:href="#DejaVuSans-35" x="159.033203"/>
      </g>
     </g>
    </g>
    <g id="text_9">
     <!--  Position in x -->
     <g transform="translate(204.411563 306.997219) scale(0.1 -0.1)">
      <defs>
       <path id="DejaVuSans-20" transform="scale(0.015625)"/>
       <path id="DejaVuSans-50" d="M 1259 4147 
L 1259 2394 
L 2053 2394 
Q 2494 2394 2734 2622 
Q 2975 2850 2975 3272 
Q 2975 3691 2734 3919 
Q 2494 4147 2053 4147 
L 1259 4147 
z
M 628 4666 
L 2053 4666 
Q 2838 4666 3239 4311 
Q 3641 3956 3641 3272 
Q 3641 2581 3239 2228 
Q 2838 1875 2053 1875 
L 1259 1875 
L 1259 0 
L 628 0 
L 628 4666 
z
" transform="scale(0.015625)"/>
       <path id="DejaVuSans-6f" d="M 1959 3097 
Q 1497 3097 1228 2736 
Q 959 2375 959 1747 
Q 959 1119 1226 758 
Q 1494 397 1959 397 
Q 2419 397 2687 759 
Q 2956 1122 2956 1747 
Q 2956 2369 2687 2733 
Q 2419 3097 1959 3097 
z
M 1959 3584 
Q 2709 3584 3137 3096 
Q 3566 2609 3566 1747 
Q 3566 888 3137 398 
Q 2709 -91 1959 -91 
Q 1206 -91 779 398 
Q 353 888 353 1747 
Q 353 2609 779 3096 
Q 1206 3584 1959 3584 
z
" transform="scale(0.015625)"/>
       <path id="DejaVuSans-73" d="M 2834 3397 
L 2834 2853 
Q 2591 2978 2328 3040 
Q 2066 3103 1784 3103 
Q 1356 3103 1142 2972 
Q 928 2841 928 2578 
Q 928 2378 1081 2264 
Q 1234 2150 1697 2047 
L 1894 2003 
Q 2506 1872 2764 1633 
Q 3022 1394 3022 966 
Q 3022 478 2636 193 
Q 2250 -91 1575 -91 
Q 1294 -91 989 -36 
Q 684 19 347 128 
L 347 722 
Q 666 556 975 473 
Q 1284 391 1588 391 
Q 1994 391 2212 530 
Q 2431 669 2431 922 
Q 2431 1156 2273 1281 
Q 2116 1406 1581 1522 
L 1381 1569 
Q 847 1681 609 1914 
Q 372 2147 372 2553 
Q 372 3047 722 3315 
Q 1072 3584 1716 3584 
Q 2034 3584 2315 3537 
Q 2597 3491 2834 3397 
z
" transform="scale(0.015625)"/>
       <path id="DejaVuSans-69" d="M 603 3500 
L 1178 3500 
L 1178 0 
L 603 0 
L 603 3500 
z
M 603 4863 
L 1178 4863 
L 1178 4134 
L 603 4134 
L 603 4863 
z
" transform="scale(0.015625)"/>
       <path id="DejaVuSans-74" d="M 1172 4494 
L 1172 3500 
L 2356 3500 
L 2356 3053 
L 1172 3053 
L 1172 1153 
Q 1172 725 1289 603 
Q 1406 481 1766 481 
L 2356 481 
L 2356 0 
L 1766 0 
Q 1100 0 847 248 
Q 594 497 594 1153 
L 594 3053 
L 172 3053 
L 172 3500 
L 594 3500 
L 594 4494 
L 1172 4494 
z
" transform="scale(0.015625)"/>
       <path id="DejaVuSans-6e" d="M 3513 2113 
L 3513 0 
L 2938 0 
L 2938 2094 
Q 2938 2591 2744 2837 
Q 2550 3084 2163 3084 
Q 1697 3084 1428 2787 
Q 1159 2491 1159 1978 
L 1159 0 
L 581 0 
L 581 3500 
L 1159 3500 
L 1159 2956 
Q 1366 3272 1645 3428 
Q 1925 3584 2291 3584 
Q 2894 3584 3203 3211 
Q 3513 2838 3513 2113 
z
" transform="scale(0.015625)"/>
       <path id="DejaVuSans-78" d="M 3513 3500 
L 2247 1797 
L 3578 0 
L 2900 0 
L 1881 1375 
L 863 0 
L 184 0 
L 1544 1831 
L 300 3500 
L 978 3500 
L 1906 2253 
L 2834 3500 
L 3513 3500 
z
" transform="scale(0.015625)"/>
      </defs>
      <use xlink:href="#DejaVuSans-20"/>
      <use xlink:href="#DejaVuSans-50" x="31.787109"/>
      <use xlink:href="#DejaVuSans-6f" x="88.464844"/>
      <use xlink:href="#DejaVuSans-73" x="149.646484"/>
      <use xlink:href="#DejaVuSans-69" x="201.746094"/>
      <use xlink:href="#DejaVuSans-74" x="229.529297"/>
      <use xlink:href="#DejaVuSans-69" x="268.738281"/>
      <use xlink:href="#DejaVuSans-6f" x="296.521484"/>
      <use xlink:href="#DejaVuSans-6e" x="357.703125"/>
      <use xlink:href="#DejaVuSans-20" x="421.082031"/>
      <use xlink:href="#DejaVuSans-69" x="452.869141"/>
      <use xlink:href="#DejaVuSans-6e" x="480.652344"/>
      <use xlink:href="#DejaVuSans-20" x="544.03125"/>
      <use xlink:href="#DejaVuSans-78" x="575.818359"/>
     </g>
    </g>
   </g>
   <g id="matplotlib.axis_2">
    <g id="ytick_1">
     <g id="line2d_9">
      <defs>
       <path id="m1b163480c5" d="M 0 0 
L -3.5 0 
" style="stroke: #000000; stroke-width: 0.8"/>
      </defs>
      <g>
       <use xlink:href="#m1b163480c5" x="57.6" y="269.777792" style="stroke: #000000; stroke-width: 0.8"/>
      </g>
     </g>
     <g id="text_10">
      <!-- −0.10 -->
      <g transform="translate(19.954687 273.577011) scale(0.1 -0.1)">
       <use xlink:href="#DejaVuSans-2212"/>
       <use xlink:href="#DejaVuSans-30" x="83.789062"/>
       <use xlink:href="#DejaVuSans-2e" x="147.412109"/>
       <use xlink:href="#DejaVuSans-31" x="179.199219"/>
       <use xlink:href="#DejaVuSans-30" x="242.822266"/>
      </g>
     </g>
    </g>
    <g id="ytick_2">
     <g id="line2d_10">
      <g>
       <use xlink:href="#m1b163480c5" x="57.6" y="227.169365" style="stroke: #000000; stroke-width: 0.8"/>
      </g>
     </g>
     <g id="text_11">
      <!-- −0.05 -->
      <g transform="translate(19.954687 230.968584) scale(0.1 -0.1)">
       <use xlink:href="#DejaVuSans-2212"/>
       <use xlink:href="#DejaVuSans-30" x="83.789062"/>
       <use xlink:href="#DejaVuSans-2e" x="147.412109"/>
       <use xlink:href="#DejaVuSans-30" x="179.199219"/>
       <use xlink:href="#DejaVuSans-35" x="242.822266"/>
      </g>
     </g>
    </g>
    <g id="ytick_3">
     <g id="line2d_11">
      <g>
       <use xlink:href="#m1b163480c5" x="57.6" y="184.560938" style="stroke: #000000; stroke-width: 0.8"/>
      </g>
     </g>
     <g id="text_12">
      <!-- 0.00 -->
      <g transform="translate(28.334375 188.360157) scale(0.1 -0.1)">
       <use xlink:href="#DejaVuSans-30"/>
       <use xlink:href="#DejaVuSans-2e" x="63.623047"/>
       <use xlink:href="#DejaVuSans-30" x="95.410156"/>
       <use xlink:href="#DejaVuSans-30" x="159.033203"/>
      </g>
     </g>
    </g>
    <g id="ytick_4">
     <g id="line2d_12">
      <g>
       <use xlink:href="#m1b163480c5" x="57.6" y="141.952511" style="stroke: #000000; stroke-width: 0.8"/>
      </g>
     </g>
     <g id="text_13">
      <!-- 0.05 -->
      <g transform="translate(28.334375 145.75173) scale(0.1 -0.1)">
       <use xlink:href="#DejaVuSans-30"/>
       <use xlink:href="#DejaVuSans-2e" x="63.623047"/>
       <use xlink:href="#DejaVuSans-30" x="95.410156"/>
       <use xlink:href="#DejaVuSans-35" x="159.033203"/>
      </g>
     </g>
    </g>
    <g id="ytick_5">
     <g id="line2d_13">
      <g>
       <use xlink:href="#m1b163480c5" x="57.6" y="99.344084" style="stroke: #000000; stroke-width: 0.8"/>
      </g>
     </g>
     <g id="text_14">
      <!-- 0.10 -->
      <g transform="translate(28.334375 103.143303) scale(0.1 -0.1)">
       <use xlink:href="#DejaVuSans-30"/>
       <use xlink:href="#DejaVuSans-2e" x="63.623047"/>
       <use xlink:href="#DejaVuSans-31" x="95.410156"/>
       <use xlink:href="#DejaVuSans-30" x="159.033203"/>
      </g>
     </g>
    </g>
    <g id="text_15">
     <!--  Position in y -->
     <g transform="translate(13.875 206.276438) rotate(-90) scale(0.1 -0.1)">
      <defs>
       <path id="DejaVuSans-79" d="M 2059 -325 
Q 1816 -950 1584 -1140 
Q 1353 -1331 966 -1331 
L 506 -1331 
L 506 -850 
L 844 -850 
Q 1081 -850 1212 -737 
Q 1344 -625 1503 -206 
L 1606 56 
L 191 3500 
L 800 3500 
L 1894 763 
L 2988 3500 
L 3597 3500 
L 2059 -325 
z
" transform="scale(0.015625)"/>
      </defs>
      <use xlink:href="#DejaVuSans-20"/>
      <use xlink:href="#DejaVuSans-50" x="31.787109"/>
      <use xlink:href="#DejaVuSans-6f" x="88.464844"/>
      <use xlink:href="#DejaVuSans-73" x="149.646484"/>
      <use xlink:href="#DejaVuSans-69" x="201.746094"/>
      <use xlink:href="#DejaVuSans-74" x="229.529297"/>
      <use xlink:href="#DejaVuSans-69" x="268.738281"/>
      <use xlink:href="#DejaVuSans-6f" x="296.521484"/>
      <use xlink:href="#DejaVuSans-6e" x="357.703125"/>
      <use xlink:href="#DejaVuSans-20" x="421.082031"/>
      <use xlink:href="#DejaVuSans-69" x="452.869141"/>
      <use xlink:href="#DejaVuSans-6e" x="480.652344"/>
      <use xlink:href="#DejaVuSans-20" x="544.03125"/>
      <use xlink:href="#DejaVuSans-79" x="575.818359"/>
     </g>
    </g>
   </g>
   <g id="line2d_14">
    <path d="M 228.053564 251.194665 
L 229.775117 249.645844 
L 231.49667 248.097022 
L 233.218222 246.5482 
L 234.939775 244.999379 
L 236.661327 243.450557 
L 238.38288 241.901736 
L 240.104433 240.352914 
L 241.825985 238.804093 
L 243.547538 237.255271 
L 245.26909 235.70645 
L 246.990643 234.157628 
L 248.712196 232.608807 
L 250.433748 231.059985 
L 252.155301 229.511164 
L 253.876853 227.962342 
L 255.598406 226.413521 
L 257.319959 224.864699 
L 259.041511 223.315878 
L 260.763064 221.767056 
L 262.484617 220.218235 
L 264.206169 218.669413 
L 265.927722 217.120592 
L 267.649274 215.57177 
L 269.370827 214.022949 
L 271.09238 212.474127 
L 272.813932 210.925306 
L 274.535485 209.376484 
L 276.257037 207.827663 
L 277.97859 206.278841 
L 279.700143 204.73002 
L 281.421695 203.181198 
L 283.143248 201.632377 
L 284.8648 200.083555 
L 286.586353 198.534733 
L 288.307906 196.985912 
L 290.029458 195.43709 
L 291.751011 193.888269 
L 293.472564 192.339447 
L 295.194116 190.790626 
L 296.915669 189.241804 
L 298.637221 187.692983 
L 300.358774 186.144161 
L 302.080327 184.59534 
L 303.801879 183.046518 
L 305.523432 181.497697 
L 307.244984 179.948875 
L 308.966537 178.400054 
L 310.68809 176.851232 
L 312.409642 175.302411 
L 314.131195 173.753589 
L 315.852747 172.204768 
L 317.5743 170.655946 
L 319.295853 169.107125 
L 321.017405 167.558303 
L 322.738958 166.009482 
L 324.46051 164.46066 
L 326.182063 162.911839 
L 327.903616 161.363017 
L 329.625168 159.814196 
L 331.346721 158.265374 
L 333.068274 156.716553 
L 334.789826 155.167731 
L 336.511379 153.61891 
L 338.232931 152.070088 
L 339.954484 150.521267 
L 341.676037 148.972445 
L 343.397589 147.423623 
L 345.119142 145.874802 
L 346.840694 144.32598 
L 348.562247 142.777159 
L 350.2838 141.228337 
L 352.005352 139.679516 
L 353.726905 138.130694 
L 355.448457 136.581873 
L 357.17001 135.033051 
L 358.891563 133.48423 
L 360.613115 131.935408 
L 362.334668 130.386587 
L 364.056221 128.837765 
L 365.777773 127.288944 
L 367.499326 125.740122 
L 369.220878 124.191301 
L 370.942431 122.642479 
L 372.663984 121.093658 
L 374.385536 119.544836 
L 376.107089 117.996015 
L 377.828641 116.447193 
L 379.550194 114.898372 
L 381.271747 113.34955 
L 382.993299 111.800729 
L 384.714852 110.251907 
L 386.436404 108.703086 
L 388.157957 107.154264 
L 389.87951 105.605443 
L 391.601062 104.056621 
L 393.322615 102.5078 
L 395.044168 100.958978 
L 396.76572 99.410156 
L 398.487273 97.861335 
" clip-path="url(#p4de53b4ab0)" style="fill: none; stroke: #0000ff; stroke-width: 1.5; stroke-linecap: square"/>
   </g>
   <g id="line2d_15">
    <path d="M 228.053564 79.807404 
L 229.775117 81.720951 
L 231.49667 83.634498 
L 233.218222 85.548046 
L 234.939775 87.461593 
L 236.661327 89.375141 
L 238.38288 91.288688 
L 240.104433 93.202235 
L 241.825985 95.115783 
L 243.547538 97.02933 
L 245.26909 98.942878 
L 246.990643 100.856425 
L 248.712196 102.769972 
L 250.433748 104.68352 
L 252.155301 106.597067 
L 253.876853 108.510615 
L 255.598406 110.424162 
L 257.319959 112.337709 
L 259.041511 114.251257 
L 260.763064 116.164804 
L 262.484617 118.078352 
L 264.206169 119.991899 
L 265.927722 121.905446 
L 267.649274 123.818994 
L 269.370827 125.732541 
L 271.09238 127.646089 
L 272.813932 129.559636 
L 274.535485 131.473183 
L 276.257037 133.386731 
L 277.97859 135.300278 
L 279.700143 137.213826 
L 281.421695 139.127373 
L 283.143248 141.04092 
L 284.8648 142.954468 
L 286.586353 144.868015 
L 288.307906 146.781563 
L 290.029458 148.69511 
L 291.751011 150.608657 
L 293.472564 152.522205 
L 295.194116 154.435752 
L 296.915669 156.3493 
L 298.637221 158.262847 
L 300.358774 160.176394 
L 302.080327 162.089942 
L 303.801879 164.003489 
L 305.523432 165.917037 
L 307.244984 167.830584 
L 308.966537 169.744131 
L 310.68809 171.657679 
L 312.409642 173.571226 
L 314.131195 175.484774 
L 315.852747 177.398321 
L 317.5743 179.311869 
L 319.295853 181.225416 
L 321.017405 183.138963 
L 322.738958 185.052511 
L 324.46051 186.966058 
L 326.182063 188.879606 
L 327.903616 190.793153 
L 329.625168 192.7067 
L 331.346721 194.620248 
L 333.068274 196.533795 
L 334.789826 198.447343 
L 336.511379 200.36089 
L 338.232931 202.274437 
L 339.954484 204.187985 
L 341.676037 206.101532 
L 343.397589 208.01508 
L 345.119142 209.928627 
L 346.840694 211.842174 
L 348.562247 213.755722 
L 350.2838 215.669269 
L 352.005352 217.582817 
L 353.726905 219.496364 
L 355.448457 221.409911 
L 357.17001 223.323459 
L 358.891563 225.237006 
L 360.613115 227.150554 
L 362.334668 229.064101 
L 364.056221 230.977648 
L 365.777773 232.891196 
L 367.499326 234.804743 
L 369.220878 236.718291 
L 370.942431 238.631838 
L 372.663984 240.545385 
L 374.385536 242.458933 
L 376.107089 244.37248 
L 377.828641 246.286028 
L 379.550194 248.199575 
L 381.271747 250.113122 
L 382.993299 252.02667 
L 384.714852 253.940217 
L 386.436404 255.853765 
L 388.157957 257.767312 
L 389.87951 259.680859 
L 391.601062 261.594407 
L 393.322615 263.507954 
L 395.044168 265.421502 
L 396.76572 267.335049 
L 398.487273 269.248596 
" clip-path="url(#p4de53b4ab0)" style="fill: none; stroke: #ffa500; stroke-width: 1.5; stroke-linecap: square"/>
   </g>
   <g id="patch_4">
    <path d="M 57.6 278.720656 
L 57.6 70.335344 
" style="fill: none; stroke: #000000; stroke-width: 0.8; stroke-linejoin: miter; stroke-linecap: square"/>
   </g>
   <g id="patch_5">
    <path d="M 414.72 278.720656 
L 414.72 70.335344 
" style="fill: none; stroke: #000000; stroke-width: 0.8; stroke-linejoin: miter; stroke-linecap: square"/>
   </g>
   <g id="patch_6">
    <path d="M 57.6 278.720656 
L 414.72 278.720656 
" style="fill: none; stroke: #000000; stroke-width: 0.8; stroke-linejoin: miter; stroke-linecap: square"/>
   </g>
   <g id="patch_7">
    <path d="M 57.6 70.335344 
L 414.72 70.335344 
" style="fill: none; stroke: #000000; stroke-width: 0.8; stroke-linejoin: miter; stroke-linecap: square"/>
   </g>
   <g id="legend_1">
    <g id="patch_8">
     <path d="M 64.6 122.369719 
L 174.7375 122.369719 
Q 176.7375 122.369719 176.7375 120.369719 
L 176.7375 77.335344 
Q 176.7375 75.335344 174.7375 75.335344 
L 64.6 75.335344 
Q 62.6 75.335344 62.6 77.335344 
L 62.6 120.369719 
Q 62.6 122.369719 64.6 122.369719 
z
" style="fill: #ffffff; opacity: 0.8; stroke: #cccccc; stroke-linejoin: miter"/>
    </g>
    <g id="PathCollection_2">
     <g>
      <use xlink:href="#m9a10bf611a" x="76.6" y="84.308781" style="fill: #0000ff; stroke: #0000ff"/>
     </g>
    </g>
    <g id="text_16">
     <!-- intersection -->
     <g transform="translate(94.6 86.933781) scale(0.1 -0.1)">
      <defs>
       <path id="DejaVuSans-65" d="M 3597 1894 
L 3597 1613 
L 953 1613 
Q 991 1019 1311 708 
Q 1631 397 2203 397 
Q 2534 397 2845 478 
Q 3156 559 3463 722 
L 3463 178 
Q 3153 47 2828 -22 
Q 2503 -91 2169 -91 
Q 1331 -91 842 396 
Q 353 884 353 1716 
Q 353 2575 817 3079 
Q 1281 3584 2069 3584 
Q 2775 3584 3186 3129 
Q 3597 2675 3597 1894 
z
M 3022 2063 
Q 3016 2534 2758 2815 
Q 2500 3097 2075 3097 
Q 1594 3097 1305 2825 
Q 1016 2553 972 2059 
L 3022 2063 
z
" transform="scale(0.015625)"/>
       <path id="DejaVuSans-72" d="M 2631 2963 
Q 2534 3019 2420 3045 
Q 2306 3072 2169 3072 
Q 1681 3072 1420 2755 
Q 1159 2438 1159 1844 
L 1159 0 
L 581 0 
L 581 3500 
L 1159 3500 
L 1159 2956 
Q 1341 3275 1631 3429 
Q 1922 3584 2338 3584 
Q 2397 3584 2469 3576 
Q 2541 3569 2628 3553 
L 2631 2963 
z
" transform="scale(0.015625)"/>
       <path id="DejaVuSans-63" d="M 3122 3366 
L 3122 2828 
Q 2878 2963 2633 3030 
Q 2388 3097 2138 3097 
Q 1578 3097 1268 2742 
Q 959 2388 959 1747 
Q 959 1106 1268 751 
Q 1578 397 2138 397 
Q 2388 397 2633 464 
Q 2878 531 3122 666 
L 3122 134 
Q 2881 22 2623 -34 
Q 2366 -91 2075 -91 
Q 1284 -91 818 406 
Q 353 903 353 1747 
Q 353 2603 823 3093 
Q 1294 3584 2113 3584 
Q 2378 3584 2631 3529 
Q 2884 3475 3122 3366 
z
" transform="scale(0.015625)"/>
      </defs>
      <use xlink:href="#DejaVuSans-69"/>
      <use xlink:href="#DejaVuSans-6e" x="27.783203"/>
      <use xlink:href="#DejaVuSans-74" x="91.162109"/>
      <use xlink:href="#DejaVuSans-65" x="130.371094"/>
      <use xlink:href="#DejaVuSans-72" x="191.894531"/>
      <use xlink:href="#DejaVuSans-73" x="233.007812"/>
      <use xlink:href="#DejaVuSans-65" x="285.107422"/>
      <use xlink:href="#DejaVuSans-63" x="346.630859"/>
      <use xlink:href="#DejaVuSans-74" x="401.611328"/>
      <use xlink:href="#DejaVuSans-69" x="440.820312"/>
      <use xlink:href="#DejaVuSans-6f" x="468.603516"/>
      <use xlink:href="#DejaVuSans-6e" x="529.785156"/>
     </g>
    </g>
    <g id="line2d_16">
     <path d="M 66.6 98.111906 
L 76.6 98.111906 
L 86.6 98.111906 
" style="fill: none; stroke: #0000ff; stroke-width: 1.5; stroke-linecap: square"/>
    </g>
    <g id="text_17">
     <!-- tagente -->
     <g transform="translate(94.6 101.611906) scale(0.1 -0.1)">
      <defs>
       <path id="DejaVuSans-61" d="M 2194 1759 
Q 1497 1759 1228 1600 
Q 959 1441 959 1056 
Q 959 750 1161 570 
Q 1363 391 1709 391 
Q 2188 391 2477 730 
Q 2766 1069 2766 1631 
L 2766 1759 
L 2194 1759 
z
M 3341 1997 
L 3341 0 
L 2766 0 
L 2766 531 
Q 2569 213 2275 61 
Q 1981 -91 1556 -91 
Q 1019 -91 701 211 
Q 384 513 384 1019 
Q 384 1609 779 1909 
Q 1175 2209 1959 2209 
L 2766 2209 
L 2766 2266 
Q 2766 2663 2505 2880 
Q 2244 3097 1772 3097 
Q 1472 3097 1187 3025 
Q 903 2953 641 2809 
L 641 3341 
Q 956 3463 1253 3523 
Q 1550 3584 1831 3584 
Q 2591 3584 2966 3190 
Q 3341 2797 3341 1997 
z
" transform="scale(0.015625)"/>
       <path id="DejaVuSans-67" d="M 2906 1791 
Q 2906 2416 2648 2759 
Q 2391 3103 1925 3103 
Q 1463 3103 1205 2759 
Q 947 2416 947 1791 
Q 947 1169 1205 825 
Q 1463 481 1925 481 
Q 2391 481 2648 825 
Q 2906 1169 2906 1791 
z
M 3481 434 
Q 3481 -459 3084 -895 
Q 2688 -1331 1869 -1331 
Q 1566 -1331 1297 -1286 
Q 1028 -1241 775 -1147 
L 775 -588 
Q 1028 -725 1275 -790 
Q 1522 -856 1778 -856 
Q 2344 -856 2625 -561 
Q 2906 -266 2906 331 
L 2906 616 
Q 2728 306 2450 153 
Q 2172 0 1784 0 
Q 1141 0 747 490 
Q 353 981 353 1791 
Q 353 2603 747 3093 
Q 1141 3584 1784 3584 
Q 2172 3584 2450 3431 
Q 2728 3278 2906 2969 
L 2906 3500 
L 3481 3500 
L 3481 434 
z
" transform="scale(0.015625)"/>
      </defs>
      <use xlink:href="#DejaVuSans-74"/>
      <use xlink:href="#DejaVuSans-61" x="39.208984"/>
      <use xlink:href="#DejaVuSans-67" x="100.488281"/>
      <use xlink:href="#DejaVuSans-65" x="163.964844"/>
      <use xlink:href="#DejaVuSans-6e" x="225.488281"/>
      <use xlink:href="#DejaVuSans-74" x="288.867188"/>
      <use xlink:href="#DejaVuSans-65" x="328.076172"/>
     </g>
    </g>
    <g id="line2d_17">
     <path d="M 66.6 112.790031 
L 76.6 112.790031 
L 86.6 112.790031 
" style="fill: none; stroke: #ffa500; stroke-width: 1.5; stroke-linecap: square"/>
    </g>
    <g id="text_18">
     <!-- perpendiculaire -->
     <g transform="translate(94.6 116.290031) scale(0.1 -0.1)">
      <defs>
       <path id="DejaVuSans-70" d="M 1159 525 
L 1159 -1331 
L 581 -1331 
L 581 3500 
L 1159 3500 
L 1159 2969 
Q 1341 3281 1617 3432 
Q 1894 3584 2278 3584 
Q 2916 3584 3314 3078 
Q 3713 2572 3713 1747 
Q 3713 922 3314 415 
Q 2916 -91 2278 -91 
Q 1894 -91 1617 61 
Q 1341 213 1159 525 
z
M 3116 1747 
Q 3116 2381 2855 2742 
Q 2594 3103 2138 3103 
Q 1681 3103 1420 2742 
Q 1159 2381 1159 1747 
Q 1159 1113 1420 752 
Q 1681 391 2138 391 
Q 2594 391 2855 752 
Q 3116 1113 3116 1747 
z
" transform="scale(0.015625)"/>
       <path id="DejaVuSans-64" d="M 2906 2969 
L 2906 4863 
L 3481 4863 
L 3481 0 
L 2906 0 
L 2906 525 
Q 2725 213 2448 61 
Q 2172 -91 1784 -91 
Q 1150 -91 751 415 
Q 353 922 353 1747 
Q 353 2572 751 3078 
Q 1150 3584 1784 3584 
Q 2172 3584 2448 3432 
Q 2725 3281 2906 2969 
z
M 947 1747 
Q 947 1113 1208 752 
Q 1469 391 1925 391 
Q 2381 391 2643 752 
Q 2906 1113 2906 1747 
Q 2906 2381 2643 2742 
Q 2381 3103 1925 3103 
Q 1469 3103 1208 2742 
Q 947 2381 947 1747 
z
" transform="scale(0.015625)"/>
       <path id="DejaVuSans-75" d="M 544 1381 
L 544 3500 
L 1119 3500 
L 1119 1403 
Q 1119 906 1312 657 
Q 1506 409 1894 409 
Q 2359 409 2629 706 
Q 2900 1003 2900 1516 
L 2900 3500 
L 3475 3500 
L 3475 0 
L 2900 0 
L 2900 538 
Q 2691 219 2414 64 
Q 2138 -91 1772 -91 
Q 1169 -91 856 284 
Q 544 659 544 1381 
z
M 1991 3584 
L 1991 3584 
z
" transform="scale(0.015625)"/>
       <path id="DejaVuSans-6c" d="M 603 4863 
L 1178 4863 
L 1178 0 
L 603 0 
L 603 4863 
z
" transform="scale(0.015625)"/>
      </defs>
      <use xlink:href="#DejaVuSans-70"/>
      <use xlink:href="#DejaVuSans-65" x="63.476562"/>
      <use xlink:href="#DejaVuSans-72" x="125"/>
      <use xlink:href="#DejaVuSans-70" x="166.113281"/>
      <use xlink:href="#DejaVuSans-65" x="229.589844"/>
      <use xlink:href="#DejaVuSans-6e" x="291.113281"/>
      <use xlink:href="#DejaVuSans-64" x="354.492188"/>
      <use xlink:href="#DejaVuSans-69" x="417.96875"/>
      <use xlink:href="#DejaVuSans-63" x="445.751953"/>
      <use xlink:href="#DejaVuSans-75" x="500.732422"/>
      <use xlink:href="#DejaVuSans-6c" x="564.111328"/>
      <use xlink:href="#DejaVuSans-61" x="591.894531"/>
      <use xlink:href="#DejaVuSans-69" x="653.173828"/>
      <use xlink:href="#DejaVuSans-72" x="680.957031"/>
      <use xlink:href="#DejaVuSans-65" x="719.820312"/>
     </g>
    </g>
   </g>
  </g>
  <g id="text_19">
   <!-- Representation insole, tangente and perpendiculaire -->
   <g transform="translate(72.325313 16.030125) scale(0.12 -0.12)">
    <defs>
     <path id="DejaVuSans-52" d="M 2841 2188 
Q 3044 2119 3236 1894 
Q 3428 1669 3622 1275 
L 4263 0 
L 3584 0 
L 2988 1197 
Q 2756 1666 2539 1819 
Q 2322 1972 1947 1972 
L 1259 1972 
L 1259 0 
L 628 0 
L 628 4666 
L 2053 4666 
Q 2853 4666 3247 4331 
Q 3641 3997 3641 3322 
Q 3641 2881 3436 2590 
Q 3231 2300 2841 2188 
z
M 1259 4147 
L 1259 2491 
L 2053 2491 
Q 2509 2491 2742 2702 
Q 2975 2913 2975 3322 
Q 2975 3731 2742 3939 
Q 2509 4147 2053 4147 
L 1259 4147 
z
" transform="scale(0.015625)"/>
     <path id="DejaVuSans-2c" d="M 750 794 
L 1409 794 
L 1409 256 
L 897 -744 
L 494 -744 
L 750 256 
L 750 794 
z
" transform="scale(0.015625)"/>
    </defs>
    <use xlink:href="#DejaVuSans-52"/>
    <use xlink:href="#DejaVuSans-65" x="64.982422"/>
    <use xlink:href="#DejaVuSans-70" x="126.505859"/>
    <use xlink:href="#DejaVuSans-72" x="189.982422"/>
    <use xlink:href="#DejaVuSans-65" x="228.845703"/>
    <use xlink:href="#DejaVuSans-73" x="290.369141"/>
    <use xlink:href="#DejaVuSans-65" x="342.46875"/>
    <use xlink:href="#DejaVuSans-6e" x="403.992188"/>
    <use xlink:href="#DejaVuSans-74" x="467.371094"/>
    <use xlink:href="#DejaVuSans-61" x="506.580078"/>
    <use xlink:href="#DejaVuSans-74" x="567.859375"/>
    <use xlink:href="#DejaVuSans-69" x="607.068359"/>
    <use xlink:href="#DejaVuSans-6f" x="634.851562"/>
    <use xlink:href="#DejaVuSans-6e" x="696.033203"/>
    <use xlink:href="#DejaVuSans-20" x="759.412109"/>
    <use xlink:href="#DejaVuSans-69" x="791.199219"/>
    <use xlink:href="#DejaVuSans-6e" x="818.982422"/>
    <use xlink:href="#DejaVuSans-73" x="882.361328"/>
    <use xlink:href="#DejaVuSans-6f" x="934.460938"/>
    <use xlink:href="#DejaVuSans-6c" x="995.642578"/>
    <use xlink:href="#DejaVuSans-65" x="1023.425781"/>
    <use xlink:href="#DejaVuSans-2c" x="1084.949219"/>
    <use xlink:href="#DejaVuSans-20" x="1116.736328"/>
    <use xlink:href="#DejaVuSans-74" x="1148.523438"/>
    <use xlink:href="#DejaVuSans-61" x="1187.732422"/>
    <use xlink:href="#DejaVuSans-6e" x="1249.011719"/>
    <use xlink:href="#DejaVuSans-67" x="1312.390625"/>
    <use xlink:href="#DejaVuSans-65" x="1375.867188"/>
    <use xlink:href="#DejaVuSans-6e" x="1437.390625"/>
    <use xlink:href="#DejaVuSans-74" x="1500.769531"/>
    <use xlink:href="#DejaVuSans-65" x="1539.978516"/>
    <use xlink:href="#DejaVuSans-20" x="1601.501953"/>
    <use xlink:href="#DejaVuSans-61" x="1633.289062"/>
    <use xlink:href="#DejaVuSans-6e" x="1694.568359"/>
    <use xlink:href="#DejaVuSans-64" x="1757.947266"/>
    <use xlink:href="#DejaVuSans-20" x="1821.423828"/>
    <use xlink:href="#DejaVuSans-70" x="1853.210938"/>
    <use xlink:href="#DejaVuSans-65" x="1916.6875"/>
    <use xlink:href="#DejaVuSans-72" x="1978.210938"/>
    <use xlink:href="#DejaVuSans-70" x="2019.324219"/>
    <use xlink:href="#DejaVuSans-65" x="2082.800781"/>
    <use xlink:href="#DejaVuSans-6e" x="2144.324219"/>
    <use xlink:href="#DejaVuSans-64" x="2207.703125"/>
    <use xlink:href="#DejaVuSans-69" x="2271.179688"/>
    <use xlink:href="#DejaVuSans-63" x="2298.962891"/>
    <use xlink:href="#DejaVuSans-75" x="2353.943359"/>
    <use xlink:href="#DejaVuSans-6c" x="2417.322266"/>
    <use xlink:href="#DejaVuSans-61" x="2445.105469"/>
    <use xlink:href="#DejaVuSans-69" x="2506.384766"/>
    <use xlink:href="#DejaVuSans-72" x="2534.167969"/>
    <use xlink:href="#DejaVuSans-65" x="2573.03125"/>
   </g>
  </g>
 </g>
 <defs>
  <clipPath id="p4de53b4ab0">
   <rect x="57.6" y="70.335344" width="357.12" height="208.385312"/>
  </clipPath>
 </defs>
</svg>
